<?xml version="1.0" encoding="utf-8" standalone="no"?>
<!DOCTYPE svg PUBLIC "-//W3C//DTD SVG 1.1//EN"
  "http://www.w3.org/Graphics/SVG/1.1/DTD/svg11.dtd">
<!-- Created with matplotlib (https://matplotlib.org/) -->
<svg height="368.13pt" version="1.1" viewBox="0 0 230.65 368.13" width="230.65pt" xmlns="http://www.w3.org/2000/svg" xmlns:xlink="http://www.w3.org/1999/xlink">
 <defs>
  <style type="text/css">
*{stroke-linecap:butt;stroke-linejoin:round;}
  </style>
 </defs>
 <g id="figure_1">
  <g id="patch_1">
   <path d="M 0 368.13 
L 230.65 368.13 
L 230.65 0 
L 0 0 
z
" style="fill:#ffffff;"/>
  </g>
  <g id="axes_1">
   <g id="patch_2">
    <path d="M 63.25 326.16 
L 230.65 326.16 
L 230.65 0 
L 63.25 0 
z
" style="fill:#ffffff;"/>
   </g>
   <g id="PathCollection_1">
    <defs>
     <path d="M 0 1.581139 
C 0.419323 1.581139 0.821528 1.41454 1.118034 1.118034 
C 1.41454 0.821528 1.581139 0.419323 1.581139 0 
C 1.581139 -0.419323 1.41454 -0.821528 1.118034 -1.118034 
C 0.821528 -1.41454 0.419323 -1.581139 0 -1.581139 
C -0.419323 -1.581139 -0.821528 -1.41454 -1.118034 -1.118034 
C -1.41454 -0.821528 -1.581139 -0.419323 -1.581139 0 
C -1.581139 0.419323 -1.41454 0.821528 -1.118034 1.118034 
C -0.821528 1.41454 -0.419323 1.581139 0 1.581139 
z
" id="m70b1ec17e7" style="stroke:#377eb8;stroke-opacity:0.1;"/>
    </defs>
    <g clip-path="url(#p9f6e5230b6)">
     <use style="fill:#377eb8;fill-opacity:0.1;stroke:#377eb8;stroke-opacity:0.1;" x="164.509441" xlink:href="#m70b1ec17e7" y="155.645556"/>
     <use style="fill:#377eb8;fill-opacity:0.1;stroke:#377eb8;stroke-opacity:0.1;" x="199.012201" xlink:href="#m70b1ec17e7" y="146.206736"/>
     <use style="fill:#377eb8;fill-opacity:0.1;stroke:#377eb8;stroke-opacity:0.1;" x="164.509441" xlink:href="#m70b1ec17e7" y="148.578756"/>
     <use style="fill:#377eb8;fill-opacity:0.1;stroke:#377eb8;stroke-opacity:0.1;" x="195.931597" xlink:href="#m70b1ec17e7" y="205.908329"/>
     <use style="fill:#377eb8;fill-opacity:0.1;stroke:#377eb8;stroke-opacity:0.1;" x="223.040909" xlink:href="#m70b1ec17e7" y="187.146327"/>
     <use style="fill:#377eb8;fill-opacity:0.1;stroke:#377eb8;stroke-opacity:0.1;" x="125.385775" xlink:href="#m70b1ec17e7" y="82.077441"/>
     <use style="fill:#377eb8;fill-opacity:0.1;stroke:#377eb8;stroke-opacity:0.1;" x="135.859827" xlink:href="#m70b1ec17e7" y="140.662221"/>
     <use style="fill:#377eb8;fill-opacity:0.1;stroke:#377eb8;stroke-opacity:0.1;" x="133.087284" xlink:href="#m70b1ec17e7" y="132.776151"/>
     <use style="fill:#377eb8;fill-opacity:0.1;stroke:#377eb8;stroke-opacity:0.1;" x="135.859827" xlink:href="#m70b1ec17e7" y="135.114856"/>
     <use style="fill:#377eb8;fill-opacity:0.1;stroke:#377eb8;stroke-opacity:0.1;" x="174.675432" xlink:href="#m70b1ec17e7" y="132.957587"/>
     <use style="fill:#377eb8;fill-opacity:0.1;stroke:#377eb8;stroke-opacity:0.1;" x="133.087284" xlink:href="#m70b1ec17e7" y="117.165889"/>
     <use style="fill:#377eb8;fill-opacity:0.1;stroke:#377eb8;stroke-opacity:0.1;" x="174.675432" xlink:href="#m70b1ec17e7" y="158.496316"/>
     <use style="fill:#377eb8;fill-opacity:0.1;stroke:#377eb8;stroke-opacity:0.1;" x="134.627586" xlink:href="#m70b1ec17e7" y="109.987154"/>
     <use style="fill:#377eb8;fill-opacity:0.1;stroke:#377eb8;stroke-opacity:0.1;" x="195.931597" xlink:href="#m70b1ec17e7" y="183.241699"/>
     <use style="fill:#377eb8;fill-opacity:0.1;stroke:#377eb8;stroke-opacity:0.1;" x="118.608447" xlink:href="#m70b1ec17e7" y="124.361993"/>
     <use style="fill:#377eb8;fill-opacity:0.1;stroke:#377eb8;stroke-opacity:0.1;" x="171.902889" xlink:href="#m70b1ec17e7" y="148.985018"/>
     <use style="fill:#377eb8;fill-opacity:0.1;stroke:#377eb8;stroke-opacity:0.1;" x="125.385775" xlink:href="#m70b1ec17e7" y="130.386698"/>
     <use style="fill:#377eb8;fill-opacity:0.1;stroke:#377eb8;stroke-opacity:0.1;" x="223.040909" xlink:href="#m70b1ec17e7" y="201.006916"/>
     <use style="fill:#377eb8;fill-opacity:0.1;stroke:#377eb8;stroke-opacity:0.1;" x="100.740946" xlink:href="#m70b1ec17e7" y="84.736865"/>
     <use style="fill:#377eb8;fill-opacity:0.1;stroke:#377eb8;stroke-opacity:0.1;" x="195.931597" xlink:href="#m70b1ec17e7" y="157.643948"/>
     <use style="fill:#377eb8;fill-opacity:0.1;stroke:#377eb8;stroke-opacity:0.1;" x="114.603662" xlink:href="#m70b1ec17e7" y="108.36886"/>
     <use style="fill:#377eb8;fill-opacity:0.1;stroke:#377eb8;stroke-opacity:0.1;" x="161.428837" xlink:href="#m70b1ec17e7" y="138.648197"/>
     <use style="fill:#377eb8;fill-opacity:0.1;stroke:#377eb8;stroke-opacity:0.1;" x="89.034652" xlink:href="#m70b1ec17e7" y="81.758285"/>
     <use style="fill:#377eb8;fill-opacity:0.1;stroke:#377eb8;stroke-opacity:0.1;" x="100.740946" xlink:href="#m70b1ec17e7" y="87.936981"/>
     <use style="fill:#377eb8;fill-opacity:0.1;stroke:#377eb8;stroke-opacity:0.1;" x="85.337928" xlink:href="#m70b1ec17e7" y="66.512834"/>
     <use style="fill:#377eb8;fill-opacity:0.1;stroke:#377eb8;stroke-opacity:0.1;" x="93.347497" xlink:href="#m70b1ec17e7" y="89.601915"/>
     <use style="fill:#377eb8;fill-opacity:0.1;stroke:#377eb8;stroke-opacity:0.1;" x="116.760085" xlink:href="#m70b1ec17e7" y="114.112132"/>
     <use style="fill:#377eb8;fill-opacity:0.1;stroke:#377eb8;stroke-opacity:0.1;" x="125.693835" xlink:href="#m70b1ec17e7" y="140.805784"/>
     <use style="fill:#377eb8;fill-opacity:0.1;stroke:#377eb8;stroke-opacity:0.1;" x="174.675432" xlink:href="#m70b1ec17e7" y="157.843885"/>
     <use style="fill:#377eb8;fill-opacity:0.1;stroke:#377eb8;stroke-opacity:0.1;" x="86.262109" xlink:href="#m70b1ec17e7" y="76.791812"/>
     <use style="fill:#377eb8;fill-opacity:0.1;stroke:#377eb8;stroke-opacity:0.1;" x="132.779223" xlink:href="#m70b1ec17e7" y="101.665332"/>
     <use style="fill:#377eb8;fill-opacity:0.1;stroke:#377eb8;stroke-opacity:0.1;" x="137.400129" xlink:href="#m70b1ec17e7" y="142.039344"/>
     <use style="fill:#377eb8;fill-opacity:0.1;stroke:#377eb8;stroke-opacity:0.1;" x="93.347497" xlink:href="#m70b1ec17e7" y="52.269622"/>
     <use style="fill:#377eb8;fill-opacity:0.1;stroke:#377eb8;stroke-opacity:0.1;" x="154.035388" xlink:href="#m70b1ec17e7" y="120.135363"/>
     <use style="fill:#377eb8;fill-opacity:0.1;stroke:#377eb8;stroke-opacity:0.1;" x="164.509441" xlink:href="#m70b1ec17e7" y="169.687461"/>
     <use style="fill:#377eb8;fill-opacity:0.1;stroke:#377eb8;stroke-opacity:0.1;" x="95.50392" xlink:href="#m70b1ec17e7" y="78.555894"/>
     <use style="fill:#377eb8;fill-opacity:0.1;stroke:#377eb8;stroke-opacity:0.1;" x="99.508704" xlink:href="#m70b1ec17e7" y="101.469442"/>
     <use style="fill:#377eb8;fill-opacity:0.1;stroke:#377eb8;stroke-opacity:0.1;" x="112.44724" xlink:href="#m70b1ec17e7" y="113.96943"/>
     <use style="fill:#377eb8;fill-opacity:0.1;stroke:#377eb8;stroke-opacity:0.1;" x="170.362587" xlink:href="#m70b1ec17e7" y="77.793131"/>
     <use style="fill:#377eb8;fill-opacity:0.1;stroke:#377eb8;stroke-opacity:0.1;" x="120.456809" xlink:href="#m70b1ec17e7" y="123.601072"/>
     <use style="fill:#377eb8;fill-opacity:0.1;stroke:#377eb8;stroke-opacity:0.1;" x="80.717022" xlink:href="#m70b1ec17e7" y="37.316152"/>
     <use style="fill:#377eb8;fill-opacity:0.1;stroke:#377eb8;stroke-opacity:0.1;" x="110.290817" xlink:href="#m70b1ec17e7" y="105.422068"/>
     <use style="fill:#377eb8;fill-opacity:0.1;stroke:#377eb8;stroke-opacity:0.1;" x="107.826334" xlink:href="#m70b1ec17e7" y="99.315363"/>
     <use style="fill:#377eb8;fill-opacity:0.1;stroke:#377eb8;stroke-opacity:0.1;" x="117.684266" xlink:href="#m70b1ec17e7" y="96.573548"/>
     <use style="fill:#377eb8;fill-opacity:0.1;stroke:#377eb8;stroke-opacity:0.1;" x="110.290817" xlink:href="#m70b1ec17e7" y="77.221267"/>
     <use style="fill:#377eb8;fill-opacity:0.1;stroke:#377eb8;stroke-opacity:0.1;" x="174.675432" xlink:href="#m70b1ec17e7" y="158.092636"/>
     <use style="fill:#377eb8;fill-opacity:0.1;stroke:#377eb8;stroke-opacity:0.1;" x="121.997111" xlink:href="#m70b1ec17e7" y="116.998939"/>
     <use style="fill:#377eb8;fill-opacity:0.1;stroke:#377eb8;stroke-opacity:0.1;" x="164.509441" xlink:href="#m70b1ec17e7" y="177.895641"/>
     <use style="fill:#377eb8;fill-opacity:0.1;stroke:#377eb8;stroke-opacity:0.1;" x="112.7553" xlink:href="#m70b1ec17e7" y="98.776069"/>
     <use style="fill:#377eb8;fill-opacity:0.1;stroke:#377eb8;stroke-opacity:0.1;" x="89.650773" xlink:href="#m70b1ec17e7" y="112.741626"/>
     <use style="fill:#377eb8;fill-opacity:0.1;stroke:#377eb8;stroke-opacity:0.1;" x="85.645988" xlink:href="#m70b1ec17e7" y="65.171203"/>
     <use style="fill:#377eb8;fill-opacity:0.1;stroke:#377eb8;stroke-opacity:0.1;" x="90.574954" xlink:href="#m70b1ec17e7" y="84.884789"/>
     <use style="fill:#377eb8;fill-opacity:0.1;stroke:#377eb8;stroke-opacity:0.1;" x="170.362587" xlink:href="#m70b1ec17e7" y="143.73416"/>
     <use style="fill:#377eb8;fill-opacity:0.1;stroke:#377eb8;stroke-opacity:0.1;" x="121.997111" xlink:href="#m70b1ec17e7" y="122.220846"/>
     <use style="fill:#377eb8;fill-opacity:0.1;stroke:#377eb8;stroke-opacity:0.1;" x="121.997111" xlink:href="#m70b1ec17e7" y="130.222975"/>
     <use style="fill:#377eb8;fill-opacity:0.1;stroke:#377eb8;stroke-opacity:0.1;" x="195.931597" xlink:href="#m70b1ec17e7" y="209.684745"/>
     <use style="fill:#377eb8;fill-opacity:0.1;stroke:#377eb8;stroke-opacity:0.1;" x="94.887799" xlink:href="#m70b1ec17e7" y="79.908832"/>
     <use style="fill:#377eb8;fill-opacity:0.1;stroke:#377eb8;stroke-opacity:0.1;" x="120.456809" xlink:href="#m70b1ec17e7" y="128.679676"/>
     <use style="fill:#377eb8;fill-opacity:0.1;stroke:#377eb8;stroke-opacity:0.1;" x="195.931597" xlink:href="#m70b1ec17e7" y="209.060167"/>
     <use style="fill:#377eb8;fill-opacity:0.1;stroke:#377eb8;stroke-opacity:0.1;" x="80.717022" xlink:href="#m70b1ec17e7" y="57.352933"/>
     <use style="fill:#377eb8;fill-opacity:0.1;stroke:#377eb8;stroke-opacity:0.1;" x="186.689787" xlink:href="#m70b1ec17e7" y="127.917072"/>
     <use style="fill:#377eb8;fill-opacity:0.1;stroke:#377eb8;stroke-opacity:0.1;" x="87.802411" xlink:href="#m70b1ec17e7" y="77.484424"/>
     <use style="fill:#377eb8;fill-opacity:0.1;stroke:#377eb8;stroke-opacity:0.1;" x="89.342713" xlink:href="#m70b1ec17e7" y="82.597892"/>
     <use style="fill:#377eb8;fill-opacity:0.1;stroke:#377eb8;stroke-opacity:0.1;" x="132.163103" xlink:href="#m70b1ec17e7" y="133.251624"/>
     <use style="fill:#377eb8;fill-opacity:0.1;stroke:#377eb8;stroke-opacity:0.1;" x="134.627586" xlink:href="#m70b1ec17e7" y="125.976198"/>
     <use style="fill:#377eb8;fill-opacity:0.1;stroke:#377eb8;stroke-opacity:0.1;" x="126.309956" xlink:href="#m70b1ec17e7" y="149.351721"/>
     <use style="fill:#377eb8;fill-opacity:0.1;stroke:#377eb8;stroke-opacity:0.1;" x="121.997111" xlink:href="#m70b1ec17e7" y="137.122522"/>
     <use style="fill:#377eb8;fill-opacity:0.1;stroke:#377eb8;stroke-opacity:0.1;" x="91.499135" xlink:href="#m70b1ec17e7" y="65.626976"/>
     <use style="fill:#377eb8;fill-opacity:0.1;stroke:#377eb8;stroke-opacity:0.1;" x="102.281248" xlink:href="#m70b1ec17e7" y="148.441507"/>
     <use style="fill:#377eb8;fill-opacity:0.1;stroke:#377eb8;stroke-opacity:0.1;" x="113.06336" xlink:href="#m70b1ec17e7" y="107.956493"/>
     <use style="fill:#377eb8;fill-opacity:0.1;stroke:#377eb8;stroke-opacity:0.1;" x="85.645988" xlink:href="#m70b1ec17e7" y="75.614649"/>
     <use style="fill:#377eb8;fill-opacity:0.1;stroke:#377eb8;stroke-opacity:0.1;" x="89.342713" xlink:href="#m70b1ec17e7" y="82.597892"/>
     <use style="fill:#377eb8;fill-opacity:0.1;stroke:#377eb8;stroke-opacity:0.1;" x="89.034652" xlink:href="#m70b1ec17e7" y="82.023026"/>
     <use style="fill:#377eb8;fill-opacity:0.1;stroke:#377eb8;stroke-opacity:0.1;" x="170.362587" xlink:href="#m70b1ec17e7" y="176.780491"/>
     <use style="fill:#377eb8;fill-opacity:0.1;stroke:#377eb8;stroke-opacity:0.1;" x="125.385775" xlink:href="#m70b1ec17e7" y="142.136759"/>
     <use style="fill:#377eb8;fill-opacity:0.1;stroke:#377eb8;stroke-opacity:0.1;" x="124.461594" xlink:href="#m70b1ec17e7" y="133.284833"/>
     <use style="fill:#377eb8;fill-opacity:0.1;stroke:#377eb8;stroke-opacity:0.1;" x="108.442455" xlink:href="#m70b1ec17e7" y="106.481366"/>
     <use style="fill:#377eb8;fill-opacity:0.1;stroke:#377eb8;stroke-opacity:0.1;" x="104.745731" xlink:href="#m70b1ec17e7" y="104.342346"/>
     <use style="fill:#377eb8;fill-opacity:0.1;stroke:#377eb8;stroke-opacity:0.1;" x="96.12004" xlink:href="#m70b1ec17e7" y="94.933167"/>
     <use style="fill:#377eb8;fill-opacity:0.1;stroke:#377eb8;stroke-opacity:0.1;" x="121.997111" xlink:href="#m70b1ec17e7" y="144.53767"/>
     <use style="fill:#377eb8;fill-opacity:0.1;stroke:#377eb8;stroke-opacity:0.1;" x="121.997111" xlink:href="#m70b1ec17e7" y="144.53767"/>
     <use style="fill:#377eb8;fill-opacity:0.1;stroke:#377eb8;stroke-opacity:0.1;" x="95.195859" xlink:href="#m70b1ec17e7" y="76.858853"/>
     <use style="fill:#377eb8;fill-opacity:0.1;stroke:#377eb8;stroke-opacity:0.1;" x="133.087284" xlink:href="#m70b1ec17e7" y="141.827627"/>
     <use style="fill:#377eb8;fill-opacity:0.1;stroke:#377eb8;stroke-opacity:0.1;" x="86.570169" xlink:href="#m70b1ec17e7" y="76.216611"/>
     <use style="fill:#377eb8;fill-opacity:0.1;stroke:#377eb8;stroke-opacity:0.1;" x="133.087284" xlink:href="#m70b1ec17e7" y="152.35872"/>
     <use style="fill:#377eb8;fill-opacity:0.1;stroke:#377eb8;stroke-opacity:0.1;" x="103.82155" xlink:href="#m70b1ec17e7" y="100.263778"/>
     <use style="fill:#377eb8;fill-opacity:0.1;stroke:#377eb8;stroke-opacity:0.1;" x="125.693835" xlink:href="#m70b1ec17e7" y="130.114916"/>
     <use style="fill:#377eb8;fill-opacity:0.1;stroke:#377eb8;stroke-opacity:0.1;" x="112.44724" xlink:href="#m70b1ec17e7" y="118.123771"/>
     <use style="fill:#377eb8;fill-opacity:0.1;stroke:#377eb8;stroke-opacity:0.1;" x="87.802411" xlink:href="#m70b1ec17e7" y="90.381122"/>
     <use style="fill:#377eb8;fill-opacity:0.1;stroke:#377eb8;stroke-opacity:0.1;" x="122.921292" xlink:href="#m70b1ec17e7" y="123.764531"/>
     <use style="fill:#377eb8;fill-opacity:0.1;stroke:#377eb8;stroke-opacity:0.1;" x="95.50392" xlink:href="#m70b1ec17e7" y="91.679608"/>
     <use style="fill:#377eb8;fill-opacity:0.1;stroke:#377eb8;stroke-opacity:0.1;" x="99.816765" xlink:href="#m70b1ec17e7" y="120.631762"/>
     <use style="fill:#377eb8;fill-opacity:0.1;stroke:#377eb8;stroke-opacity:0.1;" x="164.509441" xlink:href="#m70b1ec17e7" y="168.550399"/>
     <use style="fill:#377eb8;fill-opacity:0.1;stroke:#377eb8;stroke-opacity:0.1;" x="164.509441" xlink:href="#m70b1ec17e7" y="169.766751"/>
     <use style="fill:#377eb8;fill-opacity:0.1;stroke:#377eb8;stroke-opacity:0.1;" x="133.087284" xlink:href="#m70b1ec17e7" y="136.68732"/>
     <use style="fill:#377eb8;fill-opacity:0.1;stroke:#377eb8;stroke-opacity:0.1;" x="114.603662" xlink:href="#m70b1ec17e7" y="125.796765"/>
     <use style="fill:#377eb8;fill-opacity:0.1;stroke:#377eb8;stroke-opacity:0.1;" x="96.12004" xlink:href="#m70b1ec17e7" y="106.313585"/>
     <use style="fill:#377eb8;fill-opacity:0.1;stroke:#377eb8;stroke-opacity:0.1;" x="100.124825" xlink:href="#m70b1ec17e7" y="76.24104"/>
     <use style="fill:#377eb8;fill-opacity:0.1;stroke:#377eb8;stroke-opacity:0.1;" x="84.721807" xlink:href="#m70b1ec17e7" y="84.629508"/>
     <use style="fill:#377eb8;fill-opacity:0.1;stroke:#377eb8;stroke-opacity:0.1;" x="90.266894" xlink:href="#m70b1ec17e7" y="157.038628"/>
     <use style="fill:#377eb8;fill-opacity:0.1;stroke:#377eb8;stroke-opacity:0.1;" x="107.826334" xlink:href="#m70b1ec17e7" y="111.820819"/>
     <use style="fill:#377eb8;fill-opacity:0.1;stroke:#377eb8;stroke-opacity:0.1;" x="88.726592" xlink:href="#m70b1ec17e7" y="99.535168"/>
     <use style="fill:#377eb8;fill-opacity:0.1;stroke:#377eb8;stroke-opacity:0.1;" x="135.859827" xlink:href="#m70b1ec17e7" y="142.573614"/>
     <use style="fill:#377eb8;fill-opacity:0.1;stroke:#377eb8;stroke-opacity:0.1;" x="87.49435" xlink:href="#m70b1ec17e7" y="98.614883"/>
     <use style="fill:#377eb8;fill-opacity:0.1;stroke:#377eb8;stroke-opacity:0.1;" x="114.911722" xlink:href="#m70b1ec17e7" y="127.521732"/>
     <use style="fill:#377eb8;fill-opacity:0.1;stroke:#377eb8;stroke-opacity:0.1;" x="85.337928" xlink:href="#m70b1ec17e7" y="80.051468"/>
     <use style="fill:#377eb8;fill-opacity:0.1;stroke:#377eb8;stroke-opacity:0.1;" x="164.509441" xlink:href="#m70b1ec17e7" y="174.263037"/>
     <use style="fill:#377eb8;fill-opacity:0.1;stroke:#377eb8;stroke-opacity:0.1;" x="86.262109" xlink:href="#m70b1ec17e7" y="76.838186"/>
     <use style="fill:#377eb8;fill-opacity:0.1;stroke:#377eb8;stroke-opacity:0.1;" x="129.69862" xlink:href="#m70b1ec17e7" y="218.198684"/>
     <use style="fill:#377eb8;fill-opacity:0.1;stroke:#377eb8;stroke-opacity:0.1;" x="121.997111" xlink:href="#m70b1ec17e7" y="137.734768"/>
     <use style="fill:#377eb8;fill-opacity:0.1;stroke:#377eb8;stroke-opacity:0.1;" x="133.087284" xlink:href="#m70b1ec17e7" y="126.069791"/>
     <use style="fill:#377eb8;fill-opacity:0.1;stroke:#377eb8;stroke-opacity:0.1;" x="91.191075" xlink:href="#m70b1ec17e7" y="117.819233"/>
     <use style="fill:#377eb8;fill-opacity:0.1;stroke:#377eb8;stroke-opacity:0.1;" x="74.247755" xlink:href="#m70b1ec17e7" y="64.074917"/>
     <use style="fill:#377eb8;fill-opacity:0.1;stroke:#377eb8;stroke-opacity:0.1;" x="170.362587" xlink:href="#m70b1ec17e7" y="144.99582"/>
     <use style="fill:#377eb8;fill-opacity:0.1;stroke:#377eb8;stroke-opacity:0.1;" x="83.797626" xlink:href="#m70b1ec17e7" y="72.053322"/>
     <use style="fill:#377eb8;fill-opacity:0.1;stroke:#377eb8;stroke-opacity:0.1;" x="129.69862" xlink:href="#m70b1ec17e7" y="141.029778"/>
     <use style="fill:#377eb8;fill-opacity:0.1;stroke:#377eb8;stroke-opacity:0.1;" x="87.802411" xlink:href="#m70b1ec17e7" y="87.307645"/>
     <use style="fill:#377eb8;fill-opacity:0.1;stroke:#377eb8;stroke-opacity:0.1;" x="111.831119" xlink:href="#m70b1ec17e7" y="106.766976"/>
     <use style="fill:#377eb8;fill-opacity:0.1;stroke:#377eb8;stroke-opacity:0.1;" x="104.43767" xlink:href="#m70b1ec17e7" y="81.338881"/>
     <use style="fill:#377eb8;fill-opacity:0.1;stroke:#377eb8;stroke-opacity:0.1;" x="89.034652" xlink:href="#m70b1ec17e7" y="86.983436"/>
     <use style="fill:#377eb8;fill-opacity:0.1;stroke:#377eb8;stroke-opacity:0.1;" x="85.337928" xlink:href="#m70b1ec17e7" y="70.299536"/>
     <use style="fill:#377eb8;fill-opacity:0.1;stroke:#377eb8;stroke-opacity:0.1;" x="88.110471" xlink:href="#m70b1ec17e7" y="142.774288"/>
     <use style="fill:#377eb8;fill-opacity:0.1;stroke:#377eb8;stroke-opacity:0.1;" x="110.290817" xlink:href="#m70b1ec17e7" y="116.764281"/>
     <use style="fill:#377eb8;fill-opacity:0.1;stroke:#377eb8;stroke-opacity:0.1;" x="85.954049" xlink:href="#m70b1ec17e7" y="184.838003"/>
     <use style="fill:#377eb8;fill-opacity:0.1;stroke:#377eb8;stroke-opacity:0.1;" x="70.859091" xlink:href="#m70b1ec17e7" y="45.667431"/>
     <use style="fill:#377eb8;fill-opacity:0.1;stroke:#377eb8;stroke-opacity:0.1;" x="88.726592" xlink:href="#m70b1ec17e7" y="122.603512"/>
     <use style="fill:#377eb8;fill-opacity:0.1;stroke:#377eb8;stroke-opacity:0.1;" x="82.257324" xlink:href="#m70b1ec17e7" y="58.859461"/>
     <use style="fill:#377eb8;fill-opacity:0.1;stroke:#377eb8;stroke-opacity:0.1;" x="85.954049" xlink:href="#m70b1ec17e7" y="103.820071"/>
     <use style="fill:#377eb8;fill-opacity:0.1;stroke:#377eb8;stroke-opacity:0.1;" x="74.247755" xlink:href="#m70b1ec17e7" y="114.515923"/>
     <use style="fill:#377eb8;fill-opacity:0.1;stroke:#377eb8;stroke-opacity:0.1;" x="95.50392" xlink:href="#m70b1ec17e7" y="86.516222"/>
     <use style="fill:#377eb8;fill-opacity:0.1;stroke:#377eb8;stroke-opacity:0.1;" x="152.803147" xlink:href="#m70b1ec17e7" y="163.132108"/>
     <use style="fill:#377eb8;fill-opacity:0.1;stroke:#377eb8;stroke-opacity:0.1;" x="117.684266" xlink:href="#m70b1ec17e7" y="126.257606"/>
     <use style="fill:#377eb8;fill-opacity:0.1;stroke:#377eb8;stroke-opacity:0.1;" x="120.456809" xlink:href="#m70b1ec17e7" y="146.393067"/>
     <use style="fill:#377eb8;fill-opacity:0.1;stroke:#377eb8;stroke-opacity:0.1;" x="114.603662" xlink:href="#m70b1ec17e7" y="119.279934"/>
     <use style="fill:#377eb8;fill-opacity:0.1;stroke:#377eb8;stroke-opacity:0.1;" x="105.669912" xlink:href="#m70b1ec17e7" y="23.062568"/>
     <use style="fill:#377eb8;fill-opacity:0.1;stroke:#377eb8;stroke-opacity:0.1;" x="139.248491" xlink:href="#m70b1ec17e7" y="130.827124"/>
     <use style="fill:#377eb8;fill-opacity:0.1;stroke:#377eb8;stroke-opacity:0.1;" x="100.124825" xlink:href="#m70b1ec17e7" y="101.831489"/>
     <use style="fill:#377eb8;fill-opacity:0.1;stroke:#377eb8;stroke-opacity:0.1;" x="195.931597" xlink:href="#m70b1ec17e7" y="218.743727"/>
     <use style="fill:#377eb8;fill-opacity:0.1;stroke:#377eb8;stroke-opacity:0.1;" x="77.944479" xlink:href="#m70b1ec17e7" y="51.661752"/>
     <use style="fill:#377eb8;fill-opacity:0.1;stroke:#377eb8;stroke-opacity:0.1;" x="114.603662" xlink:href="#m70b1ec17e7" y="76.317613"/>
     <use style="fill:#377eb8;fill-opacity:0.1;stroke:#377eb8;stroke-opacity:0.1;" x="120.456809" xlink:href="#m70b1ec17e7" y="133.86828"/>
     <use style="fill:#377eb8;fill-opacity:0.1;stroke:#377eb8;stroke-opacity:0.1;" x="87.802411" xlink:href="#m70b1ec17e7" y="156.913305"/>
     <use style="fill:#377eb8;fill-opacity:0.1;stroke:#377eb8;stroke-opacity:0.1;" x="152.803147" xlink:href="#m70b1ec17e7" y="172.231385"/>
     <use style="fill:#377eb8;fill-opacity:0.1;stroke:#377eb8;stroke-opacity:0.1;" x="106.594093" xlink:href="#m70b1ec17e7" y="23.394765"/>
     <use style="fill:#377eb8;fill-opacity:0.1;stroke:#377eb8;stroke-opacity:0.1;" x="82.873445" xlink:href="#m70b1ec17e7" y="23.581796"/>
     <use style="fill:#377eb8;fill-opacity:0.1;stroke:#377eb8;stroke-opacity:0.1;" x="174.675432" xlink:href="#m70b1ec17e7" y="173.31651"/>
     <use style="fill:#377eb8;fill-opacity:0.1;stroke:#377eb8;stroke-opacity:0.1;" x="97.044222" xlink:href="#m70b1ec17e7" y="104.132964"/>
     <use style="fill:#377eb8;fill-opacity:0.1;stroke:#377eb8;stroke-opacity:0.1;" x="125.385775" xlink:href="#m70b1ec17e7" y="192.279266"/>
     <use style="fill:#377eb8;fill-opacity:0.1;stroke:#377eb8;stroke-opacity:0.1;" x="195.931597" xlink:href="#m70b1ec17e7" y="179.350627"/>
     <use style="fill:#377eb8;fill-opacity:0.1;stroke:#377eb8;stroke-opacity:0.1;" x="85.954049" xlink:href="#m70b1ec17e7" y="44.296898"/>
     <use style="fill:#377eb8;fill-opacity:0.1;stroke:#377eb8;stroke-opacity:0.1;" x="85.954049" xlink:href="#m70b1ec17e7" y="130.712401"/>
     <use style="fill:#377eb8;fill-opacity:0.1;stroke:#377eb8;stroke-opacity:0.1;" x="99.508704" xlink:href="#m70b1ec17e7" y="172.560228"/>
     <use style="fill:#377eb8;fill-opacity:0.1;stroke:#377eb8;stroke-opacity:0.1;" x="114.603662" xlink:href="#m70b1ec17e7" y="164.960317"/>
     <use style="fill:#377eb8;fill-opacity:0.1;stroke:#377eb8;stroke-opacity:0.1;" x="72.399393" xlink:href="#m70b1ec17e7" y="127.452576"/>
     <use style="fill:#377eb8;fill-opacity:0.1;stroke:#377eb8;stroke-opacity:0.1;" x="171.902889" xlink:href="#m70b1ec17e7" y="180.315248"/>
     <use style="fill:#377eb8;fill-opacity:0.1;stroke:#377eb8;stroke-opacity:0.1;" x="84.721807" xlink:href="#m70b1ec17e7" y="78.649566"/>
    </g>
   </g>
   <g id="PolyCollection_1">
    <path clip-path="url(#p9f6e5230b6)" d="M 70.859091 68.634644 
L 70.859091 84.254848 
L 72.396281 85.389915 
L 73.933471 86.522378 
L 75.470661 87.665961 
L 77.007851 88.84037 
L 78.545041 90.017509 
L 80.082231 91.224495 
L 81.619421 92.433013 
L 83.156612 93.641367 
L 84.693802 94.847867 
L 86.230992 96.040564 
L 87.768182 97.18307 
L 89.305372 98.369526 
L 90.842562 99.611312 
L 92.379752 100.783789 
L 93.916942 101.956816 
L 95.454132 103.127797 
L 96.991322 104.298725 
L 98.528512 105.469547 
L 100.065702 106.640369 
L 101.602893 107.867948 
L 103.140083 109.086224 
L 104.677273 110.253001 
L 106.214463 111.449775 
L 107.751653 112.718868 
L 109.288843 113.987379 
L 110.826033 115.257254 
L 112.363223 116.536968 
L 113.900413 117.795345 
L 115.437603 119.017024 
L 116.974793 120.334029 
L 118.511983 121.556275 
L 120.049174 122.873269 
L 121.586364 124.167291 
L 123.123554 125.50558 
L 124.660744 126.769162 
L 126.197934 128.139553 
L 127.735124 129.509865 
L 129.272314 130.882748 
L 130.809504 132.251248 
L 132.346694 133.61278 
L 133.883884 134.983544 
L 135.421074 136.31934 
L 136.958264 137.613608 
L 138.495455 138.893378 
L 140.032645 140.386246 
L 141.569835 141.845182 
L 143.107025 143.216687 
L 144.644215 144.593249 
L 146.181405 146.024322 
L 147.718595 147.409148 
L 149.255785 148.881198 
L 150.792975 150.3501 
L 152.330165 151.793836 
L 153.867355 153.255973 
L 155.404545 154.711806 
L 156.941736 156.155036 
L 158.478926 157.549073 
L 160.016116 158.96656 
L 161.553306 160.41798 
L 163.090496 161.934288 
L 164.627686 163.402076 
L 166.164876 164.813115 
L 167.702066 166.232817 
L 169.239256 167.736761 
L 170.776446 169.242979 
L 172.313636 170.749197 
L 173.850826 172.255415 
L 175.388017 173.761478 
L 176.925207 175.266124 
L 178.462397 176.771387 
L 179.999587 178.228653 
L 181.536777 179.753258 
L 183.073967 181.254412 
L 184.611157 182.718192 
L 186.148347 184.164131 
L 187.685537 185.619244 
L 189.222727 187.131779 
L 190.759917 188.605187 
L 192.297107 190.076897 
L 193.834298 191.548608 
L 195.371488 193.020318 
L 196.908678 194.492028 
L 198.445868 195.963738 
L 199.983058 197.435449 
L 201.520248 198.92628 
L 203.057438 200.441474 
L 204.594628 201.956668 
L 206.131818 203.471863 
L 207.669008 204.987057 
L 209.206198 206.526554 
L 210.743388 208.031816 
L 212.280579 209.538907 
L 213.817769 211.057434 
L 215.354959 212.573516 
L 216.892149 214.089184 
L 218.429339 215.604851 
L 219.966529 217.120519 
L 221.503719 218.636187 
L 223.040909 220.151263 
L 223.040909 195.876119 
L 223.040909 195.876119 
L 221.503719 194.694831 
L 219.966529 193.545737 
L 218.429339 192.396642 
L 216.892149 191.248315 
L 215.354959 190.100566 
L 213.817769 188.952817 
L 212.280579 187.686246 
L 210.743388 186.391291 
L 209.206198 185.104802 
L 207.669008 183.953351 
L 206.131818 182.804442 
L 204.594628 181.655533 
L 203.057438 180.507105 
L 201.520248 179.359871 
L 199.983058 178.212839 
L 198.445868 177.061844 
L 196.908678 175.87354 
L 195.371488 174.68113 
L 193.834298 173.491454 
L 192.297107 172.301642 
L 190.759917 171.112312 
L 189.222727 169.922981 
L 187.685537 168.733651 
L 186.148347 167.556974 
L 184.611157 166.40244 
L 183.073967 165.24752 
L 181.536777 164.120693 
L 179.999587 162.903964 
L 178.462397 161.633406 
L 176.925207 160.401902 
L 175.388017 159.209893 
L 173.850826 158.02149 
L 172.313636 156.830897 
L 170.776446 155.537899 
L 169.239256 154.399302 
L 167.702066 153.170303 
L 166.164876 152.005096 
L 164.627686 150.806909 
L 163.090496 149.571816 
L 161.553306 148.337257 
L 160.016116 147.102697 
L 158.478926 145.87013 
L 156.941736 144.639645 
L 155.404545 143.484183 
L 153.867355 142.217816 
L 152.330165 140.937249 
L 150.792975 139.683575 
L 149.255785 138.455129 
L 147.718595 137.218434 
L 146.181405 135.98174 
L 144.644215 134.748368 
L 143.107025 133.518766 
L 141.569835 132.350844 
L 140.032645 131.155443 
L 138.495455 129.960331 
L 136.958264 128.602631 
L 135.421074 127.362566 
L 133.883884 126.097404 
L 132.346694 124.84068 
L 130.809504 123.523949 
L 129.272314 122.154341 
L 127.735124 120.759386 
L 126.197934 119.41274 
L 124.660744 118.082276 
L 123.123554 116.750249 
L 121.586364 115.437577 
L 120.049174 114.080815 
L 118.511983 112.739898 
L 116.974793 111.367088 
L 115.437603 110.006998 
L 113.900413 108.712844 
L 112.363223 107.394177 
L 110.826033 106.040449 
L 109.288843 104.618576 
L 107.751653 103.196703 
L 106.214463 101.774829 
L 104.677273 100.405225 
L 103.140083 98.962893 
L 101.602893 97.637699 
L 100.065702 96.198381 
L 98.528512 94.83127 
L 96.991322 93.446724 
L 95.454132 92.015288 
L 93.916942 90.541011 
L 92.379752 89.059115 
L 90.842562 87.560107 
L 89.305372 86.134226 
L 87.768182 84.70304 
L 86.230992 83.281447 
L 84.693802 81.792612 
L 83.156612 80.375055 
L 81.619421 78.952766 
L 80.082231 77.42333 
L 78.545041 75.92893 
L 77.007851 74.463289 
L 75.470661 72.981856 
L 73.933471 71.562117 
L 72.396281 70.073181 
L 70.859091 68.634644 
z
" style="fill:#377eb8;fill-opacity:0.15;"/>
   </g>
   <g id="PathCollection_2">
    <defs>
     <path d="M 0 1.581139 
C 0.419323 1.581139 0.821528 1.41454 1.118034 1.118034 
C 1.41454 0.821528 1.581139 0.419323 1.581139 0 
C 1.581139 -0.419323 1.41454 -0.821528 1.118034 -1.118034 
C 0.821528 -1.41454 0.419323 -1.581139 0 -1.581139 
C -0.419323 -1.581139 -0.821528 -1.41454 -1.118034 -1.118034 
C -1.41454 -0.821528 -1.581139 -0.419323 -1.581139 0 
C -1.581139 0.419323 -1.41454 0.821528 -1.118034 1.118034 
C -0.821528 1.41454 -0.419323 1.581139 0 1.581139 
z
" id="m40ca54f091" style="stroke:#808080;stroke-opacity:0.1;"/>
    </defs>
    <g clip-path="url(#p9f6e5230b6)">
     <use style="fill:#808080;fill-opacity:0.1;stroke:#808080;stroke-opacity:0.1;" x="199.012201" xlink:href="#m40ca54f091" y="149.859285"/>
     <use style="fill:#808080;fill-opacity:0.1;stroke:#808080;stroke-opacity:0.1;" x="195.931597" xlink:href="#m40ca54f091" y="243.646969"/>
     <use style="fill:#808080;fill-opacity:0.1;stroke:#808080;stroke-opacity:0.1;" x="223.040909" xlink:href="#m40ca54f091" y="210.523029"/>
     <use style="fill:#808080;fill-opacity:0.1;stroke:#808080;stroke-opacity:0.1;" x="125.385775" xlink:href="#m40ca54f091" y="220.461679"/>
     <use style="fill:#808080;fill-opacity:0.1;stroke:#808080;stroke-opacity:0.1;" x="135.859827" xlink:href="#m40ca54f091" y="140.923584"/>
     <use style="fill:#808080;fill-opacity:0.1;stroke:#808080;stroke-opacity:0.1;" x="133.087284" xlink:href="#m40ca54f091" y="195.359707"/>
     <use style="fill:#808080;fill-opacity:0.1;stroke:#808080;stroke-opacity:0.1;" x="174.675432" xlink:href="#m40ca54f091" y="270.937143"/>
     <use style="fill:#808080;fill-opacity:0.1;stroke:#808080;stroke-opacity:0.1;" x="133.087284" xlink:href="#m40ca54f091" y="217.749744"/>
     <use style="fill:#808080;fill-opacity:0.1;stroke:#808080;stroke-opacity:0.1;" x="174.675432" xlink:href="#m40ca54f091" y="270.937143"/>
     <use style="fill:#808080;fill-opacity:0.1;stroke:#808080;stroke-opacity:0.1;" x="134.627586" xlink:href="#m40ca54f091" y="202.231531"/>
     <use style="fill:#808080;fill-opacity:0.1;stroke:#808080;stroke-opacity:0.1;" x="195.931597" xlink:href="#m40ca54f091" y="243.646969"/>
     <use style="fill:#808080;fill-opacity:0.1;stroke:#808080;stroke-opacity:0.1;" x="118.608447" xlink:href="#m40ca54f091" y="202.30998"/>
     <use style="fill:#808080;fill-opacity:0.1;stroke:#808080;stroke-opacity:0.1;" x="171.902889" xlink:href="#m40ca54f091" y="249.648942"/>
     <use style="fill:#808080;fill-opacity:0.1;stroke:#808080;stroke-opacity:0.1;" x="125.385775" xlink:href="#m40ca54f091" y="220.461679"/>
     <use style="fill:#808080;fill-opacity:0.1;stroke:#808080;stroke-opacity:0.1;" x="223.040909" xlink:href="#m40ca54f091" y="210.523029"/>
     <use style="fill:#808080;fill-opacity:0.1;stroke:#808080;stroke-opacity:0.1;" x="100.740946" xlink:href="#m40ca54f091" y="146.074069"/>
     <use style="fill:#808080;fill-opacity:0.1;stroke:#808080;stroke-opacity:0.1;" x="195.931597" xlink:href="#m40ca54f091" y="243.646969"/>
     <use style="fill:#808080;fill-opacity:0.1;stroke:#808080;stroke-opacity:0.1;" x="114.603662" xlink:href="#m40ca54f091" y="215.703858"/>
     <use style="fill:#808080;fill-opacity:0.1;stroke:#808080;stroke-opacity:0.1;" x="161.428837" xlink:href="#m40ca54f091" y="171.442555"/>
     <use style="fill:#808080;fill-opacity:0.1;stroke:#808080;stroke-opacity:0.1;" x="89.034652" xlink:href="#m40ca54f091" y="192.316634"/>
     <use style="fill:#808080;fill-opacity:0.1;stroke:#808080;stroke-opacity:0.1;" x="100.740946" xlink:href="#m40ca54f091" y="146.074069"/>
     <use style="fill:#808080;fill-opacity:0.1;stroke:#808080;stroke-opacity:0.1;" x="85.337928" xlink:href="#m40ca54f091" y="214.603525"/>
     <use style="fill:#808080;fill-opacity:0.1;stroke:#808080;stroke-opacity:0.1;" x="93.347497" xlink:href="#m40ca54f091" y="196.56334"/>
     <use style="fill:#808080;fill-opacity:0.1;stroke:#808080;stroke-opacity:0.1;" x="116.760085" xlink:href="#m40ca54f091" y="235.580709"/>
     <use style="fill:#808080;fill-opacity:0.1;stroke:#808080;stroke-opacity:0.1;" x="125.693835" xlink:href="#m40ca54f091" y="179.992503"/>
     <use style="fill:#808080;fill-opacity:0.1;stroke:#808080;stroke-opacity:0.1;" x="174.675432" xlink:href="#m40ca54f091" y="270.937143"/>
     <use style="fill:#808080;fill-opacity:0.1;stroke:#808080;stroke-opacity:0.1;" x="86.262109" xlink:href="#m40ca54f091" y="190.255691"/>
     <use style="fill:#808080;fill-opacity:0.1;stroke:#808080;stroke-opacity:0.1;" x="132.779223" xlink:href="#m40ca54f091" y="210.737273"/>
     <use style="fill:#808080;fill-opacity:0.1;stroke:#808080;stroke-opacity:0.1;" x="137.400129" xlink:href="#m40ca54f091" y="155.765527"/>
     <use style="fill:#808080;fill-opacity:0.1;stroke:#808080;stroke-opacity:0.1;" x="93.347497" xlink:href="#m40ca54f091" y="196.56334"/>
     <use style="fill:#808080;fill-opacity:0.1;stroke:#808080;stroke-opacity:0.1;" x="154.035388" xlink:href="#m40ca54f091" y="267.55345"/>
     <use style="fill:#808080;fill-opacity:0.1;stroke:#808080;stroke-opacity:0.1;" x="95.50392" xlink:href="#m40ca54f091" y="236.374663"/>
     <use style="fill:#808080;fill-opacity:0.1;stroke:#808080;stroke-opacity:0.1;" x="99.508704" xlink:href="#m40ca54f091" y="221.717724"/>
     <use style="fill:#808080;fill-opacity:0.1;stroke:#808080;stroke-opacity:0.1;" x="112.44724" xlink:href="#m40ca54f091" y="226.544631"/>
     <use style="fill:#808080;fill-opacity:0.1;stroke:#808080;stroke-opacity:0.1;" x="170.362587" xlink:href="#m40ca54f091" y="158.674578"/>
     <use style="fill:#808080;fill-opacity:0.1;stroke:#808080;stroke-opacity:0.1;" x="120.456809" xlink:href="#m40ca54f091" y="233.431846"/>
     <use style="fill:#808080;fill-opacity:0.1;stroke:#808080;stroke-opacity:0.1;" x="80.717022" xlink:href="#m40ca54f091" y="222.628869"/>
     <use style="fill:#808080;fill-opacity:0.1;stroke:#808080;stroke-opacity:0.1;" x="110.290817" xlink:href="#m40ca54f091" y="224.975678"/>
     <use style="fill:#808080;fill-opacity:0.1;stroke:#808080;stroke-opacity:0.1;" x="107.826334" xlink:href="#m40ca54f091" y="221.166903"/>
     <use style="fill:#808080;fill-opacity:0.1;stroke:#808080;stroke-opacity:0.1;" x="110.290817" xlink:href="#m40ca54f091" y="224.975678"/>
     <use style="fill:#808080;fill-opacity:0.1;stroke:#808080;stroke-opacity:0.1;" x="174.675432" xlink:href="#m40ca54f091" y="270.937143"/>
     <use style="fill:#808080;fill-opacity:0.1;stroke:#808080;stroke-opacity:0.1;" x="121.997111" xlink:href="#m40ca54f091" y="233.979368"/>
     <use style="fill:#808080;fill-opacity:0.1;stroke:#808080;stroke-opacity:0.1;" x="112.7553" xlink:href="#m40ca54f091" y="233.537924"/>
     <use style="fill:#808080;fill-opacity:0.1;stroke:#808080;stroke-opacity:0.1;" x="89.650773" xlink:href="#m40ca54f091" y="239.102256"/>
     <use style="fill:#808080;fill-opacity:0.1;stroke:#808080;stroke-opacity:0.1;" x="85.645988" xlink:href="#m40ca54f091" y="186.53263"/>
     <use style="fill:#808080;fill-opacity:0.1;stroke:#808080;stroke-opacity:0.1;" x="90.574954" xlink:href="#m40ca54f091" y="241.4246"/>
     <use style="fill:#808080;fill-opacity:0.1;stroke:#808080;stroke-opacity:0.1;" x="170.362587" xlink:href="#m40ca54f091" y="158.674578"/>
     <use style="fill:#808080;fill-opacity:0.1;stroke:#808080;stroke-opacity:0.1;" x="121.997111" xlink:href="#m40ca54f091" y="233.979368"/>
     <use style="fill:#808080;fill-opacity:0.1;stroke:#808080;stroke-opacity:0.1;" x="121.997111" xlink:href="#m40ca54f091" y="233.979368"/>
     <use style="fill:#808080;fill-opacity:0.1;stroke:#808080;stroke-opacity:0.1;" x="195.931597" xlink:href="#m40ca54f091" y="243.646969"/>
     <use style="fill:#808080;fill-opacity:0.1;stroke:#808080;stroke-opacity:0.1;" x="94.887799" xlink:href="#m40ca54f091" y="192.947489"/>
     <use style="fill:#808080;fill-opacity:0.1;stroke:#808080;stroke-opacity:0.1;" x="120.456809" xlink:href="#m40ca54f091" y="233.431846"/>
     <use style="fill:#808080;fill-opacity:0.1;stroke:#808080;stroke-opacity:0.1;" x="195.931597" xlink:href="#m40ca54f091" y="243.646969"/>
     <use style="fill:#808080;fill-opacity:0.1;stroke:#808080;stroke-opacity:0.1;" x="80.717022" xlink:href="#m40ca54f091" y="204.476622"/>
     <use style="fill:#808080;fill-opacity:0.1;stroke:#808080;stroke-opacity:0.1;" x="186.689787" xlink:href="#m40ca54f091" y="289.704813"/>
     <use style="fill:#808080;fill-opacity:0.1;stroke:#808080;stroke-opacity:0.1;" x="87.802411" xlink:href="#m40ca54f091" y="198.205714"/>
     <use style="fill:#808080;fill-opacity:0.1;stroke:#808080;stroke-opacity:0.1;" x="89.342713" xlink:href="#m40ca54f091" y="206.477642"/>
     <use style="fill:#808080;fill-opacity:0.1;stroke:#808080;stroke-opacity:0.1;" x="132.163103" xlink:href="#m40ca54f091" y="203.239837"/>
     <use style="fill:#808080;fill-opacity:0.1;stroke:#808080;stroke-opacity:0.1;" x="134.627586" xlink:href="#m40ca54f091" y="202.231531"/>
     <use style="fill:#808080;fill-opacity:0.1;stroke:#808080;stroke-opacity:0.1;" x="121.997111" xlink:href="#m40ca54f091" y="233.979368"/>
     <use style="fill:#808080;fill-opacity:0.1;stroke:#808080;stroke-opacity:0.1;" x="91.499135" xlink:href="#m40ca54f091" y="181.910588"/>
     <use style="fill:#808080;fill-opacity:0.1;stroke:#808080;stroke-opacity:0.1;" x="102.281248" xlink:href="#m40ca54f091" y="198.746875"/>
     <use style="fill:#808080;fill-opacity:0.1;stroke:#808080;stroke-opacity:0.1;" x="113.06336" xlink:href="#m40ca54f091" y="255.136726"/>
     <use style="fill:#808080;fill-opacity:0.1;stroke:#808080;stroke-opacity:0.1;" x="85.645988" xlink:href="#m40ca54f091" y="241.886019"/>
     <use style="fill:#808080;fill-opacity:0.1;stroke:#808080;stroke-opacity:0.1;" x="89.342713" xlink:href="#m40ca54f091" y="264.272968"/>
     <use style="fill:#808080;fill-opacity:0.1;stroke:#808080;stroke-opacity:0.1;" x="89.034652" xlink:href="#m40ca54f091" y="250.380283"/>
     <use style="fill:#808080;fill-opacity:0.1;stroke:#808080;stroke-opacity:0.1;" x="170.362587" xlink:href="#m40ca54f091" y="158.674578"/>
     <use style="fill:#808080;fill-opacity:0.1;stroke:#808080;stroke-opacity:0.1;" x="125.385775" xlink:href="#m40ca54f091" y="220.461679"/>
     <use style="fill:#808080;fill-opacity:0.1;stroke:#808080;stroke-opacity:0.1;" x="104.745731" xlink:href="#m40ca54f091" y="201.940895"/>
     <use style="fill:#808080;fill-opacity:0.1;stroke:#808080;stroke-opacity:0.1;" x="96.12004" xlink:href="#m40ca54f091" y="244.857216"/>
     <use style="fill:#808080;fill-opacity:0.1;stroke:#808080;stroke-opacity:0.1;" x="121.997111" xlink:href="#m40ca54f091" y="233.979368"/>
     <use style="fill:#808080;fill-opacity:0.1;stroke:#808080;stroke-opacity:0.1;" x="121.997111" xlink:href="#m40ca54f091" y="233.979368"/>
     <use style="fill:#808080;fill-opacity:0.1;stroke:#808080;stroke-opacity:0.1;" x="95.195859" xlink:href="#m40ca54f091" y="243.693124"/>
     <use style="fill:#808080;fill-opacity:0.1;stroke:#808080;stroke-opacity:0.1;" x="133.087284" xlink:href="#m40ca54f091" y="217.749744"/>
     <use style="fill:#808080;fill-opacity:0.1;stroke:#808080;stroke-opacity:0.1;" x="86.570169" xlink:href="#m40ca54f091" y="228.735584"/>
     <use style="fill:#808080;fill-opacity:0.1;stroke:#808080;stroke-opacity:0.1;" x="133.087284" xlink:href="#m40ca54f091" y="217.749744"/>
     <use style="fill:#808080;fill-opacity:0.1;stroke:#808080;stroke-opacity:0.1;" x="103.82155" xlink:href="#m40ca54f091" y="210.890212"/>
     <use style="fill:#808080;fill-opacity:0.1;stroke:#808080;stroke-opacity:0.1;" x="125.693835" xlink:href="#m40ca54f091" y="225.454761"/>
     <use style="fill:#808080;fill-opacity:0.1;stroke:#808080;stroke-opacity:0.1;" x="112.44724" xlink:href="#m40ca54f091" y="246.392095"/>
     <use style="fill:#808080;fill-opacity:0.1;stroke:#808080;stroke-opacity:0.1;" x="87.802411" xlink:href="#m40ca54f091" y="230.091429"/>
     <use style="fill:#808080;fill-opacity:0.1;stroke:#808080;stroke-opacity:0.1;" x="122.921292" xlink:href="#m40ca54f091" y="228.860168"/>
     <use style="fill:#808080;fill-opacity:0.1;stroke:#808080;stroke-opacity:0.1;" x="95.50392" xlink:href="#m40ca54f091" y="249.186841"/>
     <use style="fill:#808080;fill-opacity:0.1;stroke:#808080;stroke-opacity:0.1;" x="99.816765" xlink:href="#m40ca54f091" y="216.503184"/>
     <use style="fill:#808080;fill-opacity:0.1;stroke:#808080;stroke-opacity:0.1;" x="133.087284" xlink:href="#m40ca54f091" y="217.749744"/>
     <use style="fill:#808080;fill-opacity:0.1;stroke:#808080;stroke-opacity:0.1;" x="114.603662" xlink:href="#m40ca54f091" y="187.362521"/>
     <use style="fill:#808080;fill-opacity:0.1;stroke:#808080;stroke-opacity:0.1;" x="96.12004" xlink:href="#m40ca54f091" y="244.857216"/>
     <use style="fill:#808080;fill-opacity:0.1;stroke:#808080;stroke-opacity:0.1;" x="100.124825" xlink:href="#m40ca54f091" y="204.601124"/>
     <use style="fill:#808080;fill-opacity:0.1;stroke:#808080;stroke-opacity:0.1;" x="84.721807" xlink:href="#m40ca54f091" y="216.122602"/>
     <use style="fill:#808080;fill-opacity:0.1;stroke:#808080;stroke-opacity:0.1;" x="90.266894" xlink:href="#m40ca54f091" y="240.108409"/>
     <use style="fill:#808080;fill-opacity:0.1;stroke:#808080;stroke-opacity:0.1;" x="107.826334" xlink:href="#m40ca54f091" y="246.503446"/>
     <use style="fill:#808080;fill-opacity:0.1;stroke:#808080;stroke-opacity:0.1;" x="88.726592" xlink:href="#m40ca54f091" y="207.034455"/>
     <use style="fill:#808080;fill-opacity:0.1;stroke:#808080;stroke-opacity:0.1;" x="87.49435" xlink:href="#m40ca54f091" y="218.864429"/>
     <use style="fill:#808080;fill-opacity:0.1;stroke:#808080;stroke-opacity:0.1;" x="114.911722" xlink:href="#m40ca54f091" y="250.221627"/>
     <use style="fill:#808080;fill-opacity:0.1;stroke:#808080;stroke-opacity:0.1;" x="85.337928" xlink:href="#m40ca54f091" y="215.122393"/>
     <use style="fill:#808080;fill-opacity:0.1;stroke:#808080;stroke-opacity:0.1;" x="86.262109" xlink:href="#m40ca54f091" y="190.255691"/>
     <use style="fill:#808080;fill-opacity:0.1;stroke:#808080;stroke-opacity:0.1;" x="129.69862" xlink:href="#m40ca54f091" y="181.45836"/>
     <use style="fill:#808080;fill-opacity:0.1;stroke:#808080;stroke-opacity:0.1;" x="121.997111" xlink:href="#m40ca54f091" y="233.979368"/>
     <use style="fill:#808080;fill-opacity:0.1;stroke:#808080;stroke-opacity:0.1;" x="133.087284" xlink:href="#m40ca54f091" y="217.749744"/>
     <use style="fill:#808080;fill-opacity:0.1;stroke:#808080;stroke-opacity:0.1;" x="91.191075" xlink:href="#m40ca54f091" y="200.451971"/>
     <use style="fill:#808080;fill-opacity:0.1;stroke:#808080;stroke-opacity:0.1;" x="74.247755" xlink:href="#m40ca54f091" y="227.025522"/>
     <use style="fill:#808080;fill-opacity:0.1;stroke:#808080;stroke-opacity:0.1;" x="170.362587" xlink:href="#m40ca54f091" y="158.674578"/>
     <use style="fill:#808080;fill-opacity:0.1;stroke:#808080;stroke-opacity:0.1;" x="83.797626" xlink:href="#m40ca54f091" y="238.606572"/>
     <use style="fill:#808080;fill-opacity:0.1;stroke:#808080;stroke-opacity:0.1;" x="129.69862" xlink:href="#m40ca54f091" y="181.45836"/>
     <use style="fill:#808080;fill-opacity:0.1;stroke:#808080;stroke-opacity:0.1;" x="87.802411" xlink:href="#m40ca54f091" y="198.205714"/>
     <use style="fill:#808080;fill-opacity:0.1;stroke:#808080;stroke-opacity:0.1;" x="111.831119" xlink:href="#m40ca54f091" y="251.628084"/>
     <use style="fill:#808080;fill-opacity:0.1;stroke:#808080;stroke-opacity:0.1;" x="104.43767" xlink:href="#m40ca54f091" y="212.392286"/>
     <use style="fill:#808080;fill-opacity:0.1;stroke:#808080;stroke-opacity:0.1;" x="89.034652" xlink:href="#m40ca54f091" y="267.277111"/>
     <use style="fill:#808080;fill-opacity:0.1;stroke:#808080;stroke-opacity:0.1;" x="85.337928" xlink:href="#m40ca54f091" y="215.122393"/>
     <use style="fill:#808080;fill-opacity:0.1;stroke:#808080;stroke-opacity:0.1;" x="88.110471" xlink:href="#m40ca54f091" y="243.348546"/>
     <use style="fill:#808080;fill-opacity:0.1;stroke:#808080;stroke-opacity:0.1;" x="110.290817" xlink:href="#m40ca54f091" y="224.975678"/>
     <use style="fill:#808080;fill-opacity:0.1;stroke:#808080;stroke-opacity:0.1;" x="85.954049" xlink:href="#m40ca54f091" y="205.636114"/>
     <use style="fill:#808080;fill-opacity:0.1;stroke:#808080;stroke-opacity:0.1;" x="70.859091" xlink:href="#m40ca54f091" y="265.27534"/>
     <use style="fill:#808080;fill-opacity:0.1;stroke:#808080;stroke-opacity:0.1;" x="88.726592" xlink:href="#m40ca54f091" y="268.340028"/>
     <use style="fill:#808080;fill-opacity:0.1;stroke:#808080;stroke-opacity:0.1;" x="82.257324" xlink:href="#m40ca54f091" y="251.126409"/>
     <use style="fill:#808080;fill-opacity:0.1;stroke:#808080;stroke-opacity:0.1;" x="85.954049" xlink:href="#m40ca54f091" y="205.636114"/>
     <use style="fill:#808080;fill-opacity:0.1;stroke:#808080;stroke-opacity:0.1;" x="74.247755" xlink:href="#m40ca54f091" y="202.160822"/>
     <use style="fill:#808080;fill-opacity:0.1;stroke:#808080;stroke-opacity:0.1;" x="95.50392" xlink:href="#m40ca54f091" y="249.186841"/>
     <use style="fill:#808080;fill-opacity:0.1;stroke:#808080;stroke-opacity:0.1;" x="152.803147" xlink:href="#m40ca54f091" y="297.627778"/>
     <use style="fill:#808080;fill-opacity:0.1;stroke:#808080;stroke-opacity:0.1;" x="120.456809" xlink:href="#m40ca54f091" y="233.431846"/>
     <use style="fill:#808080;fill-opacity:0.1;stroke:#808080;stroke-opacity:0.1;" x="114.603662" xlink:href="#m40ca54f091" y="187.362521"/>
     <use style="fill:#808080;fill-opacity:0.1;stroke:#808080;stroke-opacity:0.1;" x="105.669912" xlink:href="#m40ca54f091" y="229.104683"/>
     <use style="fill:#808080;fill-opacity:0.1;stroke:#808080;stroke-opacity:0.1;" x="139.248491" xlink:href="#m40ca54f091" y="277.61162"/>
     <use style="fill:#808080;fill-opacity:0.1;stroke:#808080;stroke-opacity:0.1;" x="100.124825" xlink:href="#m40ca54f091" y="204.601124"/>
     <use style="fill:#808080;fill-opacity:0.1;stroke:#808080;stroke-opacity:0.1;" x="195.931597" xlink:href="#m40ca54f091" y="243.646969"/>
     <use style="fill:#808080;fill-opacity:0.1;stroke:#808080;stroke-opacity:0.1;" x="77.944479" xlink:href="#m40ca54f091" y="229.879359"/>
     <use style="fill:#808080;fill-opacity:0.1;stroke:#808080;stroke-opacity:0.1;" x="114.603662" xlink:href="#m40ca54f091" y="282.240311"/>
     <use style="fill:#808080;fill-opacity:0.1;stroke:#808080;stroke-opacity:0.1;" x="120.456809" xlink:href="#m40ca54f091" y="233.431846"/>
     <use style="fill:#808080;fill-opacity:0.1;stroke:#808080;stroke-opacity:0.1;" x="87.802411" xlink:href="#m40ca54f091" y="186.377143"/>
     <use style="fill:#808080;fill-opacity:0.1;stroke:#808080;stroke-opacity:0.1;" x="152.803147" xlink:href="#m40ca54f091" y="297.627778"/>
     <use style="fill:#808080;fill-opacity:0.1;stroke:#808080;stroke-opacity:0.1;" x="106.594093" xlink:href="#m40ca54f091" y="268.146019"/>
     <use style="fill:#808080;fill-opacity:0.1;stroke:#808080;stroke-opacity:0.1;" x="82.873445" xlink:href="#m40ca54f091" y="175.487692"/>
     <use style="fill:#808080;fill-opacity:0.1;stroke:#808080;stroke-opacity:0.1;" x="174.675432" xlink:href="#m40ca54f091" y="270.937143"/>
     <use style="fill:#808080;fill-opacity:0.1;stroke:#808080;stroke-opacity:0.1;" x="97.044222" xlink:href="#m40ca54f091" y="240.737143"/>
     <use style="fill:#808080;fill-opacity:0.1;stroke:#808080;stroke-opacity:0.1;" x="125.385775" xlink:href="#m40ca54f091" y="220.461679"/>
     <use style="fill:#808080;fill-opacity:0.1;stroke:#808080;stroke-opacity:0.1;" x="195.931597" xlink:href="#m40ca54f091" y="243.646969"/>
     <use style="fill:#808080;fill-opacity:0.1;stroke:#808080;stroke-opacity:0.1;" x="85.954049" xlink:href="#m40ca54f091" y="234.317486"/>
     <use style="fill:#808080;fill-opacity:0.1;stroke:#808080;stroke-opacity:0.1;" x="85.954049" xlink:href="#m40ca54f091" y="205.636114"/>
     <use style="fill:#808080;fill-opacity:0.1;stroke:#808080;stroke-opacity:0.1;" x="99.508704" xlink:href="#m40ca54f091" y="221.717724"/>
     <use style="fill:#808080;fill-opacity:0.1;stroke:#808080;stroke-opacity:0.1;" x="114.603662" xlink:href="#m40ca54f091" y="215.703858"/>
     <use style="fill:#808080;fill-opacity:0.1;stroke:#808080;stroke-opacity:0.1;" x="72.399393" xlink:href="#m40ca54f091" y="233.951215"/>
     <use style="fill:#808080;fill-opacity:0.1;stroke:#808080;stroke-opacity:0.1;" x="171.902889" xlink:href="#m40ca54f091" y="249.648942"/>
     <use style="fill:#808080;fill-opacity:0.1;stroke:#808080;stroke-opacity:0.1;" x="84.721807" xlink:href="#m40ca54f091" y="236.091582"/>
    </g>
   </g>
   <g id="PolyCollection_2">
    <path clip-path="url(#p9f6e5230b6)" d="M 70.859091 209.769444 
L 70.859091 226.113319 
L 72.396281 226.033747 
L 73.933471 225.94375 
L 75.470661 225.723307 
L 77.007851 225.689592 
L 78.545041 225.533551 
L 80.082231 225.497621 
L 81.619421 225.487721 
L 83.156612 225.460035 
L 84.693802 225.376664 
L 86.230992 225.249785 
L 87.768182 225.216916 
L 89.305372 225.306472 
L 90.842562 225.27319 
L 92.379752 225.326145 
L 93.916942 225.303895 
L 95.454132 225.39576 
L 96.991322 225.508939 
L 98.528512 225.638416 
L 100.065702 225.691736 
L 101.602893 225.816931 
L 103.140083 225.927192 
L 104.677273 225.992361 
L 106.214463 226.074341 
L 107.751653 226.282922 
L 109.288843 226.291046 
L 110.826033 226.383147 
L 112.363223 226.549574 
L 113.900413 226.630586 
L 115.437603 226.811371 
L 116.974793 227.064674 
L 118.511983 227.280946 
L 120.049174 227.594647 
L 121.586364 227.837055 
L 123.123554 228.161473 
L 124.660744 228.47145 
L 126.197934 228.740927 
L 127.735124 229.035168 
L 129.272314 229.35251 
L 130.809504 229.809792 
L 132.346694 230.03611 
L 133.883884 230.341963 
L 135.421074 230.666498 
L 136.958264 230.926418 
L 138.495455 231.243254 
L 140.032645 231.565237 
L 141.569835 231.885752 
L 143.107025 232.203331 
L 144.644215 232.520909 
L 146.181405 232.850049 
L 147.718595 233.177257 
L 149.255785 233.624112 
L 150.792975 234.121245 
L 152.330165 234.507046 
L 153.867355 234.83931 
L 155.404545 235.348311 
L 156.941736 235.893503 
L 158.478926 236.372095 
L 160.016116 236.707958 
L 161.553306 237.175259 
L 163.090496 237.641336 
L 164.627686 238.046843 
L 166.164876 238.48847 
L 167.702066 238.862979 
L 169.239256 239.197693 
L 170.776446 239.496828 
L 172.313636 239.797561 
L 173.850826 240.224755 
L 175.388017 240.648962 
L 176.925207 241.081385 
L 178.462397 241.496233 
L 179.999587 241.842747 
L 181.536777 242.162793 
L 183.073967 242.482839 
L 184.611157 242.802884 
L 186.148347 243.129828 
L 187.685537 243.485319 
L 189.222727 243.84081 
L 190.759917 244.196302 
L 192.297107 244.585456 
L 193.834298 244.988259 
L 195.371488 245.325686 
L 196.908678 245.707098 
L 198.445868 246.102966 
L 199.983058 246.498835 
L 201.520248 246.893775 
L 203.057438 247.288642 
L 204.594628 247.683509 
L 206.131818 248.074213 
L 207.669008 248.440424 
L 209.206198 248.806636 
L 210.743388 249.172847 
L 212.280579 249.539059 
L 213.817769 249.90527 
L 215.354959 250.271482 
L 216.892149 250.637391 
L 218.429339 251.001943 
L 219.966529 251.366496 
L 221.503719 251.731048 
L 223.040909 252.145766 
L 223.040909 210.664735 
L 223.040909 210.664735 
L 221.503719 210.789564 
L 219.966529 210.914394 
L 218.429339 211.039223 
L 216.892149 211.164053 
L 215.354959 211.288883 
L 213.817769 211.415635 
L 212.280579 211.544886 
L 210.743388 211.674136 
L 209.206198 211.803387 
L 207.669008 211.932637 
L 206.131818 212.061888 
L 204.594628 212.191138 
L 203.057438 212.320389 
L 201.520248 212.450183 
L 199.983058 212.579668 
L 198.445868 212.708141 
L 196.908678 212.807088 
L 195.371488 212.909295 
L 193.834298 213.032528 
L 192.297107 213.15814 
L 190.759917 213.283932 
L 189.222727 213.413587 
L 187.685537 213.533231 
L 186.148347 213.657272 
L 184.611157 213.781313 
L 183.073967 213.905354 
L 181.536777 214.029396 
L 179.999587 214.131726 
L 178.462397 214.258364 
L 176.925207 214.403381 
L 175.388017 214.468176 
L 173.850826 214.521015 
L 172.313636 214.574164 
L 170.776446 214.624429 
L 169.239256 214.685387 
L 167.702066 214.782082 
L 166.164876 214.879906 
L 164.627686 214.960854 
L 163.090496 215.07502 
L 161.553306 215.171506 
L 160.016116 215.267992 
L 158.478926 215.367544 
L 156.941736 215.467453 
L 155.404545 215.626249 
L 153.867355 215.847116 
L 152.330165 215.974543 
L 150.792975 216.141638 
L 149.255785 216.245556 
L 147.718595 216.299722 
L 146.181405 216.351057 
L 144.644215 216.405987 
L 143.107025 216.458509 
L 141.569835 216.510788 
L 140.032645 216.563702 
L 138.495455 216.64146 
L 136.958264 216.668753 
L 135.421074 216.720557 
L 133.883884 216.75706 
L 132.346694 216.747824 
L 130.809504 216.767633 
L 129.272314 216.737557 
L 127.735124 216.732752 
L 126.197934 216.730079 
L 124.660744 216.724107 
L 123.123554 216.87743 
L 121.586364 216.890594 
L 120.049174 216.963998 
L 118.511983 216.887301 
L 116.974793 216.87854 
L 115.437603 216.811807 
L 113.900413 216.79768 
L 112.363223 216.793216 
L 110.826033 216.801444 
L 109.288843 216.738424 
L 107.751653 216.718565 
L 106.214463 216.603124 
L 104.677273 216.436268 
L 103.140083 216.242686 
L 101.602893 215.948059 
L 100.065702 215.718288 
L 98.528512 215.444392 
L 96.991322 215.166333 
L 95.454132 214.98905 
L 93.916942 214.774687 
L 92.379752 214.582002 
L 90.842562 214.291676 
L 89.305372 213.935797 
L 87.768182 213.487121 
L 86.230992 213.270792 
L 84.693802 212.959941 
L 83.156612 212.70266 
L 81.619421 212.418163 
L 80.082231 212.109262 
L 78.545041 211.836144 
L 77.007851 211.373666 
L 75.470661 210.940469 
L 73.933471 210.540489 
L 72.396281 210.146705 
L 70.859091 209.769444 
z
" style="fill:#808080;fill-opacity:0.15;"/>
   </g>
   <g id="matplotlib.axis_1">
    <g id="xtick_1">
     <g id="line2d_1">
      <defs>
       <path d="M 0 0 
L 0 3.5 
" id="m5cb47173ca" style="stroke:#000000;stroke-width:0.8;"/>
      </defs>
      <g>
       <use style="stroke:#000000;stroke-width:0.8;" x="85.954049" xlink:href="#m5cb47173ca" y="326.16"/>
      </g>
     </g>
     <g id="text_1">
      <!-- 90 -->
      <defs>
       <path d="M 10.984375 1.515625 
L 10.984375 10.5 
Q 14.703125 8.734375 18.5 7.8125 
Q 22.3125 6.890625 25.984375 6.890625 
Q 35.75 6.890625 40.890625 13.453125 
Q 46.046875 20.015625 46.78125 33.40625 
Q 43.953125 29.203125 39.59375 26.953125 
Q 35.25 24.703125 29.984375 24.703125 
Q 19.046875 24.703125 12.671875 31.3125 
Q 6.296875 37.9375 6.296875 49.421875 
Q 6.296875 60.640625 12.9375 67.421875 
Q 19.578125 74.21875 30.609375 74.21875 
Q 43.265625 74.21875 49.921875 64.515625 
Q 56.59375 54.828125 56.59375 36.375 
Q 56.59375 19.140625 48.40625 8.859375 
Q 40.234375 -1.421875 26.421875 -1.421875 
Q 22.703125 -1.421875 18.890625 -0.6875 
Q 15.09375 0.046875 10.984375 1.515625 
z
M 30.609375 32.421875 
Q 37.25 32.421875 41.125 36.953125 
Q 45.015625 41.5 45.015625 49.421875 
Q 45.015625 57.28125 41.125 61.84375 
Q 37.25 66.40625 30.609375 66.40625 
Q 23.96875 66.40625 20.09375 61.84375 
Q 16.21875 57.28125 16.21875 49.421875 
Q 16.21875 41.5 20.09375 36.953125 
Q 23.96875 32.421875 30.609375 32.421875 
z
" id="DejaVuSans-57"/>
       <path d="M 31.78125 66.40625 
Q 24.171875 66.40625 20.328125 58.90625 
Q 16.5 51.421875 16.5 36.375 
Q 16.5 21.390625 20.328125 13.890625 
Q 24.171875 6.390625 31.78125 6.390625 
Q 39.453125 6.390625 43.28125 13.890625 
Q 47.125 21.390625 47.125 36.375 
Q 47.125 51.421875 43.28125 58.90625 
Q 39.453125 66.40625 31.78125 66.40625 
z
M 31.78125 74.21875 
Q 44.046875 74.21875 50.515625 64.515625 
Q 56.984375 54.828125 56.984375 36.375 
Q 56.984375 17.96875 50.515625 8.265625 
Q 44.046875 -1.421875 31.78125 -1.421875 
Q 19.53125 -1.421875 13.0625 8.265625 
Q 6.59375 17.96875 6.59375 36.375 
Q 6.59375 54.828125 13.0625 64.515625 
Q 19.53125 74.21875 31.78125 74.21875 
z
" id="DejaVuSans-48"/>
      </defs>
      <g transform="translate(77.046549 343.797813)scale(0.14 -0.14)">
       <use xlink:href="#DejaVuSans-57"/>
       <use x="63.623047" xlink:href="#DejaVuSans-48"/>
      </g>
     </g>
    </g>
    <g id="xtick_2">
     <g id="line2d_2">
      <g>
       <use style="stroke:#000000;stroke-width:0.8;" x="116.760085" xlink:href="#m5cb47173ca" y="326.16"/>
      </g>
     </g>
     <g id="text_2">
      <!-- 100 -->
      <defs>
       <path d="M 12.40625 8.296875 
L 28.515625 8.296875 
L 28.515625 63.921875 
L 10.984375 60.40625 
L 10.984375 69.390625 
L 28.421875 72.90625 
L 38.28125 72.90625 
L 38.28125 8.296875 
L 54.390625 8.296875 
L 54.390625 0 
L 12.40625 0 
z
" id="DejaVuSans-49"/>
      </defs>
      <g transform="translate(103.398835 343.797813)scale(0.14 -0.14)">
       <use xlink:href="#DejaVuSans-49"/>
       <use x="63.623047" xlink:href="#DejaVuSans-48"/>
       <use x="127.246094" xlink:href="#DejaVuSans-48"/>
      </g>
     </g>
    </g>
    <g id="xtick_3">
     <g id="line2d_3">
      <g>
       <use style="stroke:#000000;stroke-width:0.8;" x="147.566121" xlink:href="#m5cb47173ca" y="326.16"/>
      </g>
     </g>
     <g id="text_3">
      <!-- 110 -->
      <g transform="translate(134.204871 343.797813)scale(0.14 -0.14)">
       <use xlink:href="#DejaVuSans-49"/>
       <use x="63.623047" xlink:href="#DejaVuSans-49"/>
       <use x="127.246094" xlink:href="#DejaVuSans-48"/>
      </g>
     </g>
    </g>
    <g id="xtick_4">
     <g id="line2d_4">
      <g>
       <use style="stroke:#000000;stroke-width:0.8;" x="178.372157" xlink:href="#m5cb47173ca" y="326.16"/>
      </g>
     </g>
     <g id="text_4">
      <!-- 120 -->
      <defs>
       <path d="M 19.1875 8.296875 
L 53.609375 8.296875 
L 53.609375 0 
L 7.328125 0 
L 7.328125 8.296875 
Q 12.9375 14.109375 22.625 23.890625 
Q 32.328125 33.6875 34.8125 36.53125 
Q 39.546875 41.84375 41.421875 45.53125 
Q 43.3125 49.21875 43.3125 52.78125 
Q 43.3125 58.59375 39.234375 62.25 
Q 35.15625 65.921875 28.609375 65.921875 
Q 23.96875 65.921875 18.8125 64.3125 
Q 13.671875 62.703125 7.8125 59.421875 
L 7.8125 69.390625 
Q 13.765625 71.78125 18.9375 73 
Q 24.125 74.21875 28.421875 74.21875 
Q 39.75 74.21875 46.484375 68.546875 
Q 53.21875 62.890625 53.21875 53.421875 
Q 53.21875 48.921875 51.53125 44.890625 
Q 49.859375 40.875 45.40625 35.40625 
Q 44.1875 33.984375 37.640625 27.21875 
Q 31.109375 20.453125 19.1875 8.296875 
z
" id="DejaVuSans-50"/>
      </defs>
      <g transform="translate(165.010907 343.797813)scale(0.14 -0.14)">
       <use xlink:href="#DejaVuSans-49"/>
       <use x="63.623047" xlink:href="#DejaVuSans-50"/>
       <use x="127.246094" xlink:href="#DejaVuSans-48"/>
      </g>
     </g>
    </g>
    <g id="xtick_5">
     <g id="line2d_5">
      <g>
       <use style="stroke:#000000;stroke-width:0.8;" x="209.178193" xlink:href="#m5cb47173ca" y="326.16"/>
      </g>
     </g>
     <g id="text_5">
      <!-- 130 -->
      <defs>
       <path d="M 40.578125 39.3125 
Q 47.65625 37.796875 51.625 33 
Q 55.609375 28.21875 55.609375 21.1875 
Q 55.609375 10.40625 48.1875 4.484375 
Q 40.765625 -1.421875 27.09375 -1.421875 
Q 22.515625 -1.421875 17.65625 -0.515625 
Q 12.796875 0.390625 7.625 2.203125 
L 7.625 11.71875 
Q 11.71875 9.328125 16.59375 8.109375 
Q 21.484375 6.890625 26.8125 6.890625 
Q 36.078125 6.890625 40.9375 10.546875 
Q 45.796875 14.203125 45.796875 21.1875 
Q 45.796875 27.640625 41.28125 31.265625 
Q 36.765625 34.90625 28.71875 34.90625 
L 20.21875 34.90625 
L 20.21875 43.015625 
L 29.109375 43.015625 
Q 36.375 43.015625 40.234375 45.921875 
Q 44.09375 48.828125 44.09375 54.296875 
Q 44.09375 59.90625 40.109375 62.90625 
Q 36.140625 65.921875 28.71875 65.921875 
Q 24.65625 65.921875 20.015625 65.03125 
Q 15.375 64.15625 9.8125 62.3125 
L 9.8125 71.09375 
Q 15.4375 72.65625 20.34375 73.4375 
Q 25.25 74.21875 29.59375 74.21875 
Q 40.828125 74.21875 47.359375 69.109375 
Q 53.90625 64.015625 53.90625 55.328125 
Q 53.90625 49.265625 50.4375 45.09375 
Q 46.96875 40.921875 40.578125 39.3125 
z
" id="DejaVuSans-51"/>
      </defs>
      <g transform="translate(195.816943 343.797813)scale(0.14 -0.14)">
       <use xlink:href="#DejaVuSans-49"/>
       <use x="63.623047" xlink:href="#DejaVuSans-51"/>
       <use x="127.246094" xlink:href="#DejaVuSans-48"/>
      </g>
     </g>
    </g>
    <g id="text_6">
     <!-- RPP -->
     <defs>
      <path d="M 44.390625 34.1875 
Q 47.5625 33.109375 50.5625 29.59375 
Q 53.5625 26.078125 56.59375 19.921875 
L 66.609375 0 
L 56 0 
L 46.6875 18.703125 
Q 43.0625 26.03125 39.671875 28.421875 
Q 36.28125 30.8125 30.421875 30.8125 
L 19.671875 30.8125 
L 19.671875 0 
L 9.8125 0 
L 9.8125 72.90625 
L 32.078125 72.90625 
Q 44.578125 72.90625 50.734375 67.671875 
Q 56.890625 62.453125 56.890625 51.90625 
Q 56.890625 45.015625 53.6875 40.46875 
Q 50.484375 35.9375 44.390625 34.1875 
z
M 19.671875 64.796875 
L 19.671875 38.921875 
L 32.078125 38.921875 
Q 39.203125 38.921875 42.84375 42.21875 
Q 46.484375 45.515625 46.484375 51.90625 
Q 46.484375 58.296875 42.84375 61.546875 
Q 39.203125 64.796875 32.078125 64.796875 
z
" id="DejaVuSans-82"/>
      <path d="M 19.671875 64.796875 
L 19.671875 37.40625 
L 32.078125 37.40625 
Q 38.96875 37.40625 42.71875 40.96875 
Q 46.484375 44.53125 46.484375 51.125 
Q 46.484375 57.671875 42.71875 61.234375 
Q 38.96875 64.796875 32.078125 64.796875 
z
M 9.8125 72.90625 
L 32.078125 72.90625 
Q 44.34375 72.90625 50.609375 67.359375 
Q 56.890625 61.8125 56.890625 51.125 
Q 56.890625 40.328125 50.609375 34.8125 
Q 44.34375 29.296875 32.078125 29.296875 
L 19.671875 29.296875 
L 19.671875 0 
L 9.8125 0 
z
" id="DejaVuSans-80"/>
     </defs>
     <g transform="translate(129.842969 364.386562)scale(0.18 -0.18)">
      <use xlink:href="#DejaVuSans-82"/>
      <use x="69.482422" xlink:href="#DejaVuSans-80"/>
      <use x="129.785156" xlink:href="#DejaVuSans-80"/>
     </g>
    </g>
   </g>
   <g id="matplotlib.axis_2">
    <g id="ytick_1">
     <g id="line2d_6">
      <defs>
       <path d="M 0 0 
L -3.5 0 
" id="meef8db7ed3" style="stroke:#000000;stroke-width:0.8;"/>
      </defs>
      <g>
       <use style="stroke:#000000;stroke-width:0.8;" x="63.25" xlink:href="#meef8db7ed3" y="326.16"/>
      </g>
     </g>
     <g id="text_7">
      <!-- $30k -->
      <defs>
       <path d="M 33.796875 -14.703125 
L 28.90625 -14.703125 
L 28.859375 0 
Q 23.734375 0.09375 18.609375 1.1875 
Q 13.484375 2.296875 8.296875 4.5 
L 8.296875 13.28125 
Q 13.28125 10.15625 18.375 8.5625 
Q 23.484375 6.984375 28.90625 6.9375 
L 28.90625 29.203125 
Q 18.109375 30.953125 13.203125 35.15625 
Q 8.296875 39.359375 8.296875 46.6875 
Q 8.296875 54.640625 13.625 59.21875 
Q 18.953125 63.8125 28.90625 64.5 
L 28.90625 75.984375 
L 33.796875 75.984375 
L 33.796875 64.65625 
Q 38.328125 64.453125 42.578125 63.6875 
Q 46.828125 62.9375 50.875 61.625 
L 50.875 53.078125 
Q 46.828125 55.125 42.546875 56.25 
Q 38.28125 57.375 33.796875 57.5625 
L 33.796875 36.71875 
Q 44.875 35.015625 50.09375 30.609375 
Q 55.328125 26.21875 55.328125 18.609375 
Q 55.328125 10.359375 49.78125 5.59375 
Q 44.234375 0.828125 33.796875 0.09375 
z
M 28.90625 37.59375 
L 28.90625 57.625 
Q 23.25 56.984375 20.265625 54.390625 
Q 17.28125 51.8125 17.28125 47.515625 
Q 17.28125 43.3125 20.03125 40.96875 
Q 22.796875 38.625 28.90625 37.59375 
z
M 33.796875 28.21875 
L 33.796875 7.078125 
Q 39.984375 7.90625 43.140625 10.59375 
Q 46.296875 13.28125 46.296875 17.671875 
Q 46.296875 21.96875 43.28125 24.5 
Q 40.28125 27.046875 33.796875 28.21875 
z
" id="DejaVuSans-36"/>
       <path d="M 9.078125 75.984375 
L 18.109375 75.984375 
L 18.109375 31.109375 
L 44.921875 54.6875 
L 56.390625 54.6875 
L 27.390625 29.109375 
L 57.625 0 
L 45.90625 0 
L 18.109375 26.703125 
L 18.109375 0 
L 9.078125 0 
z
" id="DejaVuSans-107"/>
      </defs>
      <g transform="translate(21.420625 331.478906)scale(0.14 -0.14)">
       <use xlink:href="#DejaVuSans-36"/>
       <use x="63.623047" xlink:href="#DejaVuSans-51"/>
       <use x="127.246094" xlink:href="#DejaVuSans-48"/>
       <use x="190.869141" xlink:href="#DejaVuSans-107"/>
      </g>
     </g>
    </g>
    <g id="ytick_2">
     <g id="line2d_7">
      <g>
       <use style="stroke:#000000;stroke-width:0.8;" x="63.25" xlink:href="#meef8db7ed3" y="232.971429"/>
      </g>
     </g>
     <g id="text_8">
      <!-- $40k -->
      <defs>
       <path d="M 37.796875 64.3125 
L 12.890625 25.390625 
L 37.796875 25.390625 
z
M 35.203125 72.90625 
L 47.609375 72.90625 
L 47.609375 25.390625 
L 58.015625 25.390625 
L 58.015625 17.1875 
L 47.609375 17.1875 
L 47.609375 0 
L 37.796875 0 
L 37.796875 17.1875 
L 4.890625 17.1875 
L 4.890625 26.703125 
z
" id="DejaVuSans-52"/>
      </defs>
      <g transform="translate(21.420625 238.290335)scale(0.14 -0.14)">
       <use xlink:href="#DejaVuSans-36"/>
       <use x="63.623047" xlink:href="#DejaVuSans-52"/>
       <use x="127.246094" xlink:href="#DejaVuSans-48"/>
       <use x="190.869141" xlink:href="#DejaVuSans-107"/>
      </g>
     </g>
    </g>
    <g id="ytick_3">
     <g id="line2d_8">
      <g>
       <use style="stroke:#000000;stroke-width:0.8;" x="63.25" xlink:href="#meef8db7ed3" y="139.782857"/>
      </g>
     </g>
     <g id="text_9">
      <!-- $50k -->
      <defs>
       <path d="M 10.796875 72.90625 
L 49.515625 72.90625 
L 49.515625 64.59375 
L 19.828125 64.59375 
L 19.828125 46.734375 
Q 21.96875 47.46875 24.109375 47.828125 
Q 26.265625 48.1875 28.421875 48.1875 
Q 40.625 48.1875 47.75 41.5 
Q 54.890625 34.8125 54.890625 23.390625 
Q 54.890625 11.625 47.5625 5.09375 
Q 40.234375 -1.421875 26.90625 -1.421875 
Q 22.3125 -1.421875 17.546875 -0.640625 
Q 12.796875 0.140625 7.71875 1.703125 
L 7.71875 11.625 
Q 12.109375 9.234375 16.796875 8.0625 
Q 21.484375 6.890625 26.703125 6.890625 
Q 35.15625 6.890625 40.078125 11.328125 
Q 45.015625 15.765625 45.015625 23.390625 
Q 45.015625 31 40.078125 35.4375 
Q 35.15625 39.890625 26.703125 39.890625 
Q 22.75 39.890625 18.8125 39.015625 
Q 14.890625 38.140625 10.796875 36.28125 
z
" id="DejaVuSans-53"/>
      </defs>
      <g transform="translate(21.420625 145.101763)scale(0.14 -0.14)">
       <use xlink:href="#DejaVuSans-36"/>
       <use x="63.623047" xlink:href="#DejaVuSans-53"/>
       <use x="127.246094" xlink:href="#DejaVuSans-48"/>
       <use x="190.869141" xlink:href="#DejaVuSans-107"/>
      </g>
     </g>
    </g>
    <g id="ytick_4">
     <g id="line2d_9">
      <g>
       <use style="stroke:#000000;stroke-width:0.8;" x="63.25" xlink:href="#meef8db7ed3" y="46.594286"/>
      </g>
     </g>
     <g id="text_10">
      <!-- $60k -->
      <defs>
       <path d="M 33.015625 40.375 
Q 26.375 40.375 22.484375 35.828125 
Q 18.609375 31.296875 18.609375 23.390625 
Q 18.609375 15.53125 22.484375 10.953125 
Q 26.375 6.390625 33.015625 6.390625 
Q 39.65625 6.390625 43.53125 10.953125 
Q 47.40625 15.53125 47.40625 23.390625 
Q 47.40625 31.296875 43.53125 35.828125 
Q 39.65625 40.375 33.015625 40.375 
z
M 52.59375 71.296875 
L 52.59375 62.3125 
Q 48.875 64.0625 45.09375 64.984375 
Q 41.3125 65.921875 37.59375 65.921875 
Q 27.828125 65.921875 22.671875 59.328125 
Q 17.53125 52.734375 16.796875 39.40625 
Q 19.671875 43.65625 24.015625 45.921875 
Q 28.375 48.1875 33.59375 48.1875 
Q 44.578125 48.1875 50.953125 41.515625 
Q 57.328125 34.859375 57.328125 23.390625 
Q 57.328125 12.15625 50.6875 5.359375 
Q 44.046875 -1.421875 33.015625 -1.421875 
Q 20.359375 -1.421875 13.671875 8.265625 
Q 6.984375 17.96875 6.984375 36.375 
Q 6.984375 53.65625 15.1875 63.9375 
Q 23.390625 74.21875 37.203125 74.21875 
Q 40.921875 74.21875 44.703125 73.484375 
Q 48.484375 72.75 52.59375 71.296875 
z
" id="DejaVuSans-54"/>
      </defs>
      <g transform="translate(21.420625 51.913192)scale(0.14 -0.14)">
       <use xlink:href="#DejaVuSans-36"/>
       <use x="63.623047" xlink:href="#DejaVuSans-54"/>
       <use x="127.246094" xlink:href="#DejaVuSans-48"/>
       <use x="190.869141" xlink:href="#DejaVuSans-107"/>
      </g>
     </g>
    </g>
    <g id="text_11">
     <!-- Real Salary -->
     <defs>
      <path d="M 56.203125 29.59375 
L 56.203125 25.203125 
L 14.890625 25.203125 
Q 15.484375 15.921875 20.484375 11.0625 
Q 25.484375 6.203125 34.421875 6.203125 
Q 39.59375 6.203125 44.453125 7.46875 
Q 49.3125 8.734375 54.109375 11.28125 
L 54.109375 2.78125 
Q 49.265625 0.734375 44.1875 -0.34375 
Q 39.109375 -1.421875 33.890625 -1.421875 
Q 20.796875 -1.421875 13.15625 6.1875 
Q 5.515625 13.8125 5.515625 26.8125 
Q 5.515625 40.234375 12.765625 48.109375 
Q 20.015625 56 32.328125 56 
Q 43.359375 56 49.78125 48.890625 
Q 56.203125 41.796875 56.203125 29.59375 
z
M 47.21875 32.234375 
Q 47.125 39.59375 43.09375 43.984375 
Q 39.0625 48.390625 32.421875 48.390625 
Q 24.90625 48.390625 20.390625 44.140625 
Q 15.875 39.890625 15.1875 32.171875 
z
" id="DejaVuSans-101"/>
      <path d="M 34.28125 27.484375 
Q 23.390625 27.484375 19.1875 25 
Q 14.984375 22.515625 14.984375 16.5 
Q 14.984375 11.71875 18.140625 8.90625 
Q 21.296875 6.109375 26.703125 6.109375 
Q 34.1875 6.109375 38.703125 11.40625 
Q 43.21875 16.703125 43.21875 25.484375 
L 43.21875 27.484375 
z
M 52.203125 31.203125 
L 52.203125 0 
L 43.21875 0 
L 43.21875 8.296875 
Q 40.140625 3.328125 35.546875 0.953125 
Q 30.953125 -1.421875 24.3125 -1.421875 
Q 15.921875 -1.421875 10.953125 3.296875 
Q 6 8.015625 6 15.921875 
Q 6 25.140625 12.171875 29.828125 
Q 18.359375 34.515625 30.609375 34.515625 
L 43.21875 34.515625 
L 43.21875 35.40625 
Q 43.21875 41.609375 39.140625 45 
Q 35.0625 48.390625 27.6875 48.390625 
Q 23 48.390625 18.546875 47.265625 
Q 14.109375 46.140625 10.015625 43.890625 
L 10.015625 52.203125 
Q 14.9375 54.109375 19.578125 55.046875 
Q 24.21875 56 28.609375 56 
Q 40.484375 56 46.34375 49.84375 
Q 52.203125 43.703125 52.203125 31.203125 
z
" id="DejaVuSans-97"/>
      <path d="M 9.421875 75.984375 
L 18.40625 75.984375 
L 18.40625 0 
L 9.421875 0 
z
" id="DejaVuSans-108"/>
      <path id="DejaVuSans-32"/>
      <path d="M 53.515625 70.515625 
L 53.515625 60.890625 
Q 47.90625 63.578125 42.921875 64.890625 
Q 37.9375 66.21875 33.296875 66.21875 
Q 25.25 66.21875 20.875 63.09375 
Q 16.5 59.96875 16.5 54.203125 
Q 16.5 49.359375 19.40625 46.890625 
Q 22.3125 44.4375 30.421875 42.921875 
L 36.375 41.703125 
Q 47.40625 39.59375 52.65625 34.296875 
Q 57.90625 29 57.90625 20.125 
Q 57.90625 9.515625 50.796875 4.046875 
Q 43.703125 -1.421875 29.984375 -1.421875 
Q 24.8125 -1.421875 18.96875 -0.25 
Q 13.140625 0.921875 6.890625 3.21875 
L 6.890625 13.375 
Q 12.890625 10.015625 18.65625 8.296875 
Q 24.421875 6.59375 29.984375 6.59375 
Q 38.421875 6.59375 43.015625 9.90625 
Q 47.609375 13.234375 47.609375 19.390625 
Q 47.609375 24.75 44.3125 27.78125 
Q 41.015625 30.8125 33.5 32.328125 
L 27.484375 33.5 
Q 16.453125 35.6875 11.515625 40.375 
Q 6.59375 45.0625 6.59375 53.421875 
Q 6.59375 63.09375 13.40625 68.65625 
Q 20.21875 74.21875 32.171875 74.21875 
Q 37.3125 74.21875 42.625 73.28125 
Q 47.953125 72.359375 53.515625 70.515625 
z
" id="DejaVuSans-83"/>
      <path d="M 41.109375 46.296875 
Q 39.59375 47.171875 37.8125 47.578125 
Q 36.03125 48 33.890625 48 
Q 26.265625 48 22.1875 43.046875 
Q 18.109375 38.09375 18.109375 28.8125 
L 18.109375 0 
L 9.078125 0 
L 9.078125 54.6875 
L 18.109375 54.6875 
L 18.109375 46.1875 
Q 20.953125 51.171875 25.484375 53.578125 
Q 30.03125 56 36.53125 56 
Q 37.453125 56 38.578125 55.875 
Q 39.703125 55.765625 41.0625 55.515625 
z
" id="DejaVuSans-114"/>
      <path d="M 32.171875 -5.078125 
Q 28.375 -14.84375 24.75 -17.8125 
Q 21.140625 -20.796875 15.09375 -20.796875 
L 7.90625 -20.796875 
L 7.90625 -13.28125 
L 13.1875 -13.28125 
Q 16.890625 -13.28125 18.9375 -11.515625 
Q 21 -9.765625 23.484375 -3.21875 
L 25.09375 0.875 
L 2.984375 54.6875 
L 12.5 54.6875 
L 29.59375 11.921875 
L 46.6875 54.6875 
L 56.203125 54.6875 
z
" id="DejaVuSans-121"/>
     </defs>
     <g transform="translate(13.677187 213.613594)rotate(-90)scale(0.18 -0.18)">
      <use xlink:href="#DejaVuSans-82"/>
      <use x="64.982422" xlink:href="#DejaVuSans-101"/>
      <use x="126.505859" xlink:href="#DejaVuSans-97"/>
      <use x="187.785156" xlink:href="#DejaVuSans-108"/>
      <use x="215.568359" xlink:href="#DejaVuSans-32"/>
      <use x="247.355469" xlink:href="#DejaVuSans-83"/>
      <use x="310.832031" xlink:href="#DejaVuSans-97"/>
      <use x="372.111328" xlink:href="#DejaVuSans-108"/>
      <use x="399.894531" xlink:href="#DejaVuSans-97"/>
      <use x="461.173828" xlink:href="#DejaVuSans-114"/>
      <use x="502.287109" xlink:href="#DejaVuSans-121"/>
     </g>
    </g>
   </g>
   <g id="line2d_10">
    <path clip-path="url(#p9f6e5230b6)" d="M 70.859091 76.08915 
L 72.396281 77.412859 
L 73.933471 78.736568 
L 75.470661 80.060277 
L 77.007851 81.383986 
L 78.545041 82.707694 
L 80.082231 84.031403 
L 81.619421 85.355112 
L 83.156612 86.678821 
L 84.693802 88.00253 
L 86.230992 89.326238 
L 87.768182 90.649947 
L 89.305372 91.973656 
L 90.842562 93.297365 
L 92.379752 94.621074 
L 93.916942 95.944783 
L 95.454132 97.268491 
L 96.991322 98.5922 
L 98.528512 99.915909 
L 100.065702 101.239618 
L 101.602893 102.563327 
L 103.140083 103.887036 
L 104.677273 105.210744 
L 106.214463 106.534453 
L 107.751653 107.858162 
L 109.288843 109.181871 
L 110.826033 110.50558 
L 112.363223 111.829289 
L 113.900413 113.152997 
L 115.437603 114.476706 
L 116.974793 115.800415 
L 118.511983 117.124124 
L 120.049174 118.447833 
L 121.586364 119.771542 
L 123.123554 121.09525 
L 124.660744 122.418959 
L 126.197934 123.742668 
L 127.735124 125.066377 
L 129.272314 126.390086 
L 130.809504 127.713795 
L 132.346694 129.037503 
L 133.883884 130.361212 
L 135.421074 131.684921 
L 136.958264 133.00863 
L 138.495455 134.332339 
L 140.032645 135.656047 
L 141.569835 136.979756 
L 143.107025 138.303465 
L 144.644215 139.627174 
L 146.181405 140.950883 
L 147.718595 142.274592 
L 149.255785 143.5983 
L 150.792975 144.922009 
L 152.330165 146.245718 
L 153.867355 147.569427 
L 155.404545 148.893136 
L 156.941736 150.216845 
L 158.478926 151.540553 
L 160.016116 152.864262 
L 161.553306 154.187971 
L 163.090496 155.51168 
L 164.627686 156.835389 
L 166.164876 158.159098 
L 167.702066 159.482806 
L 169.239256 160.806515 
L 170.776446 162.130224 
L 172.313636 163.453933 
L 173.850826 164.777642 
L 175.388017 166.101351 
L 176.925207 167.425059 
L 178.462397 168.748768 
L 179.999587 170.072477 
L 181.536777 171.396186 
L 183.073967 172.719895 
L 184.611157 174.043604 
L 186.148347 175.367312 
L 187.685537 176.691021 
L 189.222727 178.01473 
L 190.759917 179.338439 
L 192.297107 180.662148 
L 193.834298 181.985856 
L 195.371488 183.309565 
L 196.908678 184.633274 
L 198.445868 185.956983 
L 199.983058 187.280692 
L 201.520248 188.604401 
L 203.057438 189.928109 
L 204.594628 191.251818 
L 206.131818 192.575527 
L 207.669008 193.899236 
L 209.206198 195.222945 
L 210.743388 196.546654 
L 212.280579 197.870362 
L 213.817769 199.194071 
L 215.354959 200.51778 
L 216.892149 201.841489 
L 218.429339 203.165198 
L 219.966529 204.488907 
L 221.503719 205.812615 
L 223.040909 207.136324 
" style="fill:none;stroke:#377eb8;stroke-linecap:square;stroke-width:4;"/>
   </g>
   <g id="line2d_11">
    <path clip-path="url(#p9f6e5230b6)" d="M 70.859091 218.472502 
L 72.396281 218.60278 
L 73.933471 218.733057 
L 75.470661 218.863335 
L 77.007851 218.993612 
L 78.545041 219.12389 
L 80.082231 219.254167 
L 81.619421 219.384445 
L 83.156612 219.514722 
L 84.693802 219.645 
L 86.230992 219.775277 
L 87.768182 219.905555 
L 89.305372 220.035832 
L 90.842562 220.16611 
L 92.379752 220.296387 
L 93.916942 220.426665 
L 95.454132 220.556942 
L 96.991322 220.68722 
L 98.528512 220.817497 
L 100.065702 220.947775 
L 101.602893 221.078052 
L 103.140083 221.20833 
L 104.677273 221.338607 
L 106.214463 221.468885 
L 107.751653 221.599162 
L 109.288843 221.72944 
L 110.826033 221.859717 
L 112.363223 221.989995 
L 113.900413 222.120272 
L 115.437603 222.25055 
L 116.974793 222.380827 
L 118.511983 222.511105 
L 120.049174 222.641382 
L 121.586364 222.77166 
L 123.123554 222.901937 
L 124.660744 223.032215 
L 126.197934 223.162492 
L 127.735124 223.29277 
L 129.272314 223.423047 
L 130.809504 223.553325 
L 132.346694 223.683602 
L 133.883884 223.81388 
L 135.421074 223.944157 
L 136.958264 224.074435 
L 138.495455 224.204712 
L 140.032645 224.33499 
L 141.569835 224.465267 
L 143.107025 224.595545 
L 144.644215 224.725822 
L 146.181405 224.8561 
L 147.718595 224.986377 
L 149.255785 225.116655 
L 150.792975 225.246932 
L 152.330165 225.37721 
L 153.867355 225.507487 
L 155.404545 225.637765 
L 156.941736 225.768042 
L 158.478926 225.89832 
L 160.016116 226.028597 
L 161.553306 226.158875 
L 163.090496 226.289152 
L 164.627686 226.41943 
L 166.164876 226.549707 
L 167.702066 226.679985 
L 169.239256 226.810262 
L 170.776446 226.94054 
L 172.313636 227.070817 
L 173.850826 227.201095 
L 175.388017 227.331372 
L 176.925207 227.46165 
L 178.462397 227.591927 
L 179.999587 227.722205 
L 181.536777 227.852482 
L 183.073967 227.98276 
L 184.611157 228.113037 
L 186.148347 228.243315 
L 187.685537 228.373592 
L 189.222727 228.50387 
L 190.759917 228.634147 
L 192.297107 228.764425 
L 193.834298 228.894702 
L 195.371488 229.02498 
L 196.908678 229.155258 
L 198.445868 229.285535 
L 199.983058 229.415813 
L 201.520248 229.54609 
L 203.057438 229.676368 
L 204.594628 229.806645 
L 206.131818 229.936923 
L 207.669008 230.0672 
L 209.206198 230.197478 
L 210.743388 230.327755 
L 212.280579 230.458033 
L 213.817769 230.58831 
L 215.354959 230.718588 
L 216.892149 230.848865 
L 218.429339 230.979143 
L 219.966529 231.10942 
L 221.503719 231.239698 
L 223.040909 231.369975 
" style="fill:none;stroke:#808080;stroke-dasharray:14.8,6.4;stroke-dashoffset:0;stroke-width:4;"/>
   </g>
   <g id="patch_3">
    <path d="M 63.25 326.16 
L 63.25 0 
" style="fill:none;"/>
   </g>
   <g id="patch_4">
    <path d="M 230.65 326.16 
L 230.65 0 
" style="fill:none;"/>
   </g>
   <g id="patch_5">
    <path d="M 63.25 326.16 
L 230.65 326.16 
" style="fill:none;stroke:#000000;stroke-linecap:square;stroke-linejoin:miter;stroke-width:4;"/>
   </g>
   <g id="patch_6">
    <path d="M 63.25 0 
L 230.65 0 
" style="fill:none;"/>
   </g>
  </g>
 </g>
 <defs>
  <clipPath id="p9f6e5230b6">
   <rect height="326.16" width="167.4" x="63.25" y="0"/>
  </clipPath>
 </defs>
</svg>
